<svg width="795" height="95" viewBox="0 0 795 95" fill="none" xmlns="http://www.w3.org/2000/svg">
<path d="M58.3818 7.76562L58.0684 10.5869C56.1875 10.7959 54.5853 11.4925 53.2617 12.6768C51.9382 13.861 51.2764 15.3936 51.2764 17.2744C50.5101 17.9014 49.8831 18.9463 49.3955 20.4092C48.5596 22.5687 48.1068 23.7181 48.0371 23.8574C46.6439 26.5046 45.6686 28.5944 45.1113 30.127C46.9225 30.4753 47.8281 30.6494 47.8281 30.6494C50.4753 30.6494 54.3415 29.3607 59.4268 26.7832C63.1885 24.763 66.9154 22.7428 70.6074 20.7227L80.9521 22.917L85.0273 26.2607L85.7588 29.8135C80.8825 29.9528 77.9915 31.4157 77.0859 34.2021L75.7275 34.0977C75.3792 34.3066 72.8714 36.2572 68.2041 39.9492C65.139 42.457 62.248 43.7109 59.5312 43.7109C58.974 43.7109 58.4167 43.6761 57.8594 43.6064C58.556 42.3525 59.8099 40.6458 61.6211 38.4863C63.4323 36.2572 64.6514 34.5853 65.2783 33.4707C64.8604 33.401 64.4424 33.3662 64.0244 33.3662C61.8649 33.3662 59.6706 33.6449 57.4414 34.2021C56.5358 34.4808 55.6302 34.7943 54.7246 35.1426C53.819 35.4212 52.8786 35.5605 51.9033 35.5605C50.7887 35.5605 49.5348 35.3167 48.1416 34.8291C46.2607 34.0628 45.0765 33.61 44.5889 33.4707C44.3799 33.6797 43.4395 35.2122 41.7676 38.0684C38.2148 44.1289 34.0003 48.0648 29.124 49.876C33.0947 45.0693 36.3688 38.7998 38.9463 31.0674C39.2946 29.4652 39.9564 27.0967 40.9316 23.9619C41.7676 21.8024 42.6383 19.6081 43.5439 17.3789C44.5192 14.6621 45.0068 12.3981 45.0068 10.5869L40.3047 6.8252L45.1113 4.73535C46.6439 4.87467 47.4102 4.94434 47.4102 4.94434C51.1719 4.94434 53.1572 4.94434 53.3662 4.94434C55.5954 5.22298 57.2673 6.16341 58.3818 7.76562ZM8.74805 21.1406C12.7884 21.4889 14.8086 21.6631 14.8086 21.6631C14.8086 21.6631 15.3311 21.5586 16.376 21.3496C21.8096 22.3945 24.7702 24.6934 25.2578 28.2461L23.4814 30.127C21.8096 30.7539 19.1276 31.4854 15.4355 32.3213C14.4603 32.0426 12.6839 30.7539 10.1064 28.4551C8.78288 27.8281 7.18066 26.5742 5.2998 24.6934L6.34473 22.0811L8.74805 21.1406ZM46.0518 40.6807L48.9775 41.4121L51.2764 40.6807C54.2021 41.0986 56.1527 42.5615 57.1279 45.0693C56.292 45.8356 55.4561 46.6019 54.6201 47.3682C53.5752 48.3434 53.0527 49.2839 53.0527 50.1895C53.0527 50.5378 53.0876 50.8861 53.1572 51.2344C54.4808 52.4883 56.4661 54.7523 59.1133 58.0264C61.5514 61.0915 63.6413 63.3206 65.3828 64.7139C68.1693 66.5947 72.3838 69.4508 78.0264 73.2822C80.1162 74.8148 83.3903 76.9743 87.8486 79.7607C90.9137 81.363 95.3721 84.0449 101.224 87.8066C99.8304 88.6426 98.8551 89.1999 98.2979 89.4785C97.1136 90.0358 96.0339 90.3841 95.0586 90.5234L81.1611 92.5088C78.723 91.5335 76.2848 89.6178 73.8467 86.7617C71.8265 84.2539 69.8411 81.7461 67.8906 79.2383C63.1536 73.944 60.2627 70.7048 59.2178 69.5205C56.2223 65.8981 53.7493 62.2757 51.7988 58.6533C50.7539 60.9521 49.1169 64.3656 46.8877 68.8936C44.7282 72.7249 42.8822 75.5462 41.3496 77.3574C39.2598 79.8652 36.6475 82.0596 33.5127 83.9404C28.8454 86.7269 25.5016 88.1201 23.4814 88.1201C23.4814 88.1201 21.6006 88.1201 17.8389 88.1201C25.9196 82.9652 32.4329 77.2181 37.3789 70.8789C43.4395 63.0768 46.609 55.1006 46.8877 46.9502L43.6484 45.0693C43.7878 44.1637 43.9619 43.1536 44.1709 42.0391C44.3799 40.9245 45.0068 40.4717 46.0518 40.6807ZM9.16602 81.7461L7.70312 83C5.89193 82.8607 4.67285 82.2686 4.0459 81.2236C3.76725 80.8057 2.58301 77.2878 0.493164 70.6699C1.53809 69.0677 2.61784 67.1868 3.73242 65.0273C4.77734 64.8184 5.78743 64.4004 6.7627 63.7734C8.08626 62.9375 10.6637 60.2555 14.4951 55.7275C19.0231 50.6423 21.8444 47.5771 22.959 46.5322C22.541 47.0895 21.8096 49.1794 20.7646 52.8018C19.9984 55.7275 17.3861 61.5791 12.9277 70.3564C12.0918 71.7497 11.0469 73.944 9.79297 76.9395C9.23568 78.5417 9.02669 80.1439 9.16602 81.7461ZM152.283 12.6768C161.478 12.6768 169.524 16.7171 176.42 24.7979C182.969 32.5303 186.243 41.1335 186.243 50.6074C186.243 57.6432 184.919 64.0521 182.272 69.834C179.277 76.0339 174.958 80.8057 169.315 84.1494C164.508 87.0752 160.154 88.5729 156.253 88.6426L147.163 88.8516C156.01 81.5371 162.349 75.3372 166.18 70.252C172.101 62.4499 175.062 54.3343 175.062 45.9053C175.062 43.3975 174.365 40.5762 172.972 37.4414C171.788 34.446 170.29 31.9382 168.479 29.918C164.23 24.972 158.552 22.499 151.447 22.499C147.615 22.499 143.749 23.3698 139.848 25.1113C139.918 26.5046 139.953 27.863 139.953 29.1865C139.953 40.5413 137.445 51.5479 132.429 62.2061C126.926 73.8395 119.611 82.0596 110.486 86.8662C109.511 86.2393 108.779 85.3685 108.291 84.2539C108.152 83.418 107.839 82.1989 107.351 80.5967C106.585 79.1338 105.505 77.0091 104.112 74.2227C103.624 72.8294 102.719 70.8092 101.395 68.1621C100.907 62.5892 100.664 56.5635 100.664 50.085C100.664 46.4626 102.51 42.457 106.202 38.0684C106.341 37.8594 109.511 34.5156 115.71 28.0371C120.169 23.5788 124.906 20.2002 129.921 17.9014C137.305 14.4183 144.759 12.6768 152.283 12.6768ZM109.65 72.0283C112.785 70.6351 115.641 68.5104 118.218 65.6543C121.353 61.9622 124.279 57.6781 126.996 52.8018C130.339 46.8109 132.011 42.0042 132.011 38.3818C132.011 38.5908 131.698 35.3516 131.071 28.6641C125.08 31.1022 119.611 34.6898 114.666 39.4268C108.605 45.2087 105.575 50.8164 105.575 56.25C105.575 64.1217 106.933 69.3812 109.65 72.0283ZM218.911 4.00391C221.28 4.00391 223.683 5.08366 226.121 7.24316L225.703 9.54199C222.638 10.4476 219.608 11.3184 216.612 12.1543C212.851 13.3385 210.029 14.4531 208.148 15.498C210.587 15.8464 212.328 16.6475 213.373 17.9014V19.6777C213.791 20.0957 214.975 20.4092 216.926 20.6182C218.667 20.7575 219.886 21.4541 220.583 22.708C220.165 24.5192 218.876 25.8428 216.717 26.6787C214.139 27.654 212.676 28.3854 212.328 28.873L211.91 35.0381C212.746 35.0381 214 34.6201 215.672 33.7842C217.413 32.9482 218.737 32.5303 219.643 32.5303C222.429 32.5303 224.484 33.3662 225.808 35.0381L224.345 37.4414C222.882 38.2077 220.548 38.8695 217.344 39.4268C214.209 39.9144 211.945 40.611 210.552 41.5166L210.238 49.04C210.587 49.1794 211.005 49.249 211.492 49.249C212.328 49.249 213.547 48.9355 215.149 48.3086C216.821 47.6816 218.11 47.3682 219.016 47.3682C220.618 47.3682 222.533 47.8906 224.763 48.9355C227.061 49.9108 228.733 50.9906 229.778 52.1748C229.291 54.7523 228.385 56.2848 227.061 56.7725C227.061 57.7477 226.853 59.1758 226.435 61.0566C226.017 62.9375 225.808 64.3656 225.808 65.3408C225.808 65.8981 225.912 66.4902 226.121 67.1172C225.006 69.9733 224.449 73.2474 224.449 76.9395C224.449 78.054 224.136 79.0641 223.509 79.9697L223.927 81.5371C222.394 85.1595 221.628 87.0404 221.628 87.1797C221.628 87.3887 221.698 87.6325 221.837 87.9111C231.311 82.1292 237.615 66.9779 240.75 42.457L238.869 40.5762L240.75 39.8447C241.447 37.9639 241.795 34.7246 241.795 30.127C241.795 28.1764 240.332 26.0866 237.406 23.8574L235.212 24.1709C233.61 22.1507 232.843 20.026 232.913 17.7969V17.1699C233.54 17.7272 234.167 18.2845 234.794 18.8418C235.491 19.3991 236.222 19.6777 236.988 19.6777C244.93 19.6777 253.359 16.6126 262.275 10.4824C264.296 11.179 265.898 11.5273 267.082 11.5273C270.286 11.5273 272.341 12.9206 273.247 15.707L270.844 18.8418L266.769 35.5605L267.082 37.4414C266.037 37.5111 265.619 38.2425 265.828 39.6357C264.505 40.5413 262.415 41.3076 259.559 41.9346C256.702 42.5615 254.682 43.2581 253.498 44.0244C253.707 48.7614 255.553 54.195 259.036 60.3252C262.589 66.3857 266.385 70.9137 270.426 73.9092C273.143 75.79 275.894 77.7057 278.681 79.6562C281.676 81.9551 283.696 84.5326 284.741 87.3887L282.756 88.6426H277.531C277.531 88.6426 276.939 88.5033 275.755 88.2246L273.665 88.6426C272.69 88.4336 271.714 88.2246 270.739 88.0156C269.485 87.737 268.615 87.3538 268.127 86.8662L267.082 86.9707C262.554 82.6517 258.514 76.3822 254.961 68.1621C254.891 68.0924 252.244 61.0218 247.02 46.9502C245.069 58.4443 243.049 66.8037 240.959 72.0283C237.058 81.9202 231.52 87.6325 224.345 89.165L222.882 88.3291C221.767 88.3988 220.165 89.374 218.075 91.2549C215.985 93.2054 214.279 94.3548 212.955 94.7031C212.467 93.7975 211.666 92.7526 210.552 91.5684C209.019 89.9661 208.148 89.0257 207.939 88.7471C207.382 87.3538 206.198 85.3337 204.387 82.6865C207.939 83.3135 209.89 83.627 210.238 83.627C212.885 83.627 215.08 81.9551 216.821 78.6113C218.284 75.7552 219.016 72.8643 219.016 69.9385C219.016 69.5902 218.911 69.0677 218.702 68.3711C218.563 67.6745 218.493 67.152 218.493 66.8037C218.493 66.8037 218.946 64.3307 219.852 59.3848C219.712 57.7826 219.12 55.5882 218.075 52.8018C217.239 52.7321 216.403 52.6973 215.567 52.6973C209.089 52.6973 202.436 54.9961 195.609 59.5938L194.146 56.25L191.325 57.0859C190.28 55.9017 189.758 54.2646 189.758 52.1748C189.758 49.667 189.967 37.6852 190.385 16.2295L186.519 11.5273C187.494 11.5273 188.922 11.4925 190.803 11.4229C191.012 11.4229 191.36 11.3532 191.848 11.2139C192.335 11.0745 192.718 11.0049 192.997 11.0049C193.345 11.0049 193.903 11.1094 194.669 11.3184C195.435 11.4577 195.992 11.5273 196.341 11.5273C199.615 11.5273 207.138 9.01953 218.911 4.00391ZM198.431 17.0654C197.455 19.2249 196.968 21.5586 196.968 24.0664C196.968 25.3203 197.246 26.4349 197.804 27.4102C200.242 27.2012 203.377 25.9473 207.208 23.6484L206.895 20.0957C205.919 18.4935 204.596 17.5182 202.924 17.1699C202.784 16.9609 202.715 16.7868 202.715 16.6475C202.993 16.5778 203.411 16.4036 203.969 16.125L204.178 15.707C203.69 15.6374 203.202 15.6025 202.715 15.6025C200.904 15.6025 199.476 16.0902 198.431 17.0654ZM243.571 22.917L247.02 23.6484L248.482 25.5293C248.343 26.7832 248.273 27.4102 248.273 27.4102V37.9639C249.667 37.6852 251.408 37.0931 253.498 36.1875C256.215 34.9336 257.887 34.2021 258.514 33.9932L259.663 18.5283L243.571 22.917ZM201.983 31.5898L197.386 30.8584L196.55 32.7393L196.968 37.4414L196.445 39.3223L197.386 41.5166L206.895 37.4414C207.243 35.2819 207.417 34.2021 207.417 34.2021C207.417 34.2021 207.243 32.9134 206.895 30.3359L201.983 31.5898ZM206.059 42.248L196.341 45.4873C196.132 46.8805 195.714 48.9007 195.087 51.5479L196.341 53.4287C197.525 53.4287 199.023 53.1152 200.834 52.4883C203.133 51.7917 204.631 51.3737 205.327 51.2344L206.895 43.6064L206.059 42.248ZM208.148 58.0264C212.119 58.0264 215.428 60.9173 218.075 66.6992C217.518 67.7441 216.438 68.6846 214.836 69.5205C213.094 68.6846 211.771 66.943 210.865 64.2959C209.681 60.8825 208.775 58.7926 208.148 58.0264ZM200.938 61.0566C204.004 62.3105 206.895 65.7588 209.611 71.4014L208.88 73.2822L205.118 74.3271C204.073 72.6553 203.237 70.5306 202.61 67.9531C202.053 65.6543 201.496 63.3555 200.938 61.0566ZM193.52 64.9229C196.027 65.4801 197.978 66.943 199.371 69.3115C200.764 71.4014 201.461 73.8047 201.461 76.5215C201.461 77.1484 201.391 77.7754 201.252 78.4023L198.222 80.1787C195.923 78.2979 194.773 75.3721 194.773 71.4014C194.773 70.4261 194.843 69.207 194.982 67.7441L193.52 64.9229ZM186.414 68.5801L191.116 72.3418L192.057 80.1787C190.803 83.8708 189.305 86.0651 187.563 86.7617C187.424 86.4831 186.936 85.7168 186.101 84.4629C185.404 83.4876 185.056 82.6865 185.056 82.0596C185.056 81.0843 185.369 79.5169 185.996 77.3574C186.623 75.1283 186.936 73.4912 186.936 72.4463C186.936 72.4463 186.762 71.1576 186.414 68.5801ZM344.682 5.88477C345.239 6.23307 347.225 7.06901 350.638 8.39258C353.076 9.29818 354.922 10.3779 356.176 11.6318L357.012 14.1396C356.316 16.8564 355.967 19.6081 355.967 22.3945C355.967 23.7181 356.838 24.7979 358.58 25.6338C361.784 27.027 363.491 27.8281 363.7 28.0371C365.72 29.3607 366.939 31.4157 367.357 34.2021C366.312 34.9684 364.919 35.3864 363.177 35.4561C365.058 35.3864 363.595 35.3516 358.789 35.3516C356.35 35.3516 355.131 37.8594 355.131 42.875C355.131 43.502 355.271 44.4424 355.549 45.6963C355.828 46.9502 355.967 47.9255 355.967 48.6221C355.967 49.1794 355.828 50.0501 355.549 51.2344C355.271 52.349 355.131 53.1849 355.131 53.7422C355.131 53.7422 355.48 56.5635 356.176 62.2061C356.107 63.1813 356.246 64.6094 356.594 66.4902C356.873 67.2565 358.51 68.998 361.505 71.7148C363.177 73.1777 365.023 75.1283 367.043 77.5664C369.482 80.6315 370.701 82.8258 370.701 84.1494C370.701 84.4977 370.666 84.846 370.596 85.1943L368.088 86.3438C366.207 85.9258 363.943 85.1247 361.296 83.9404C359.137 82.8258 356.977 81.7461 354.818 80.7012C353.634 81.1888 352.031 82.2337 350.011 83.8359C348.061 85.4382 346.458 86.5179 345.205 87.0752C344.02 87.6325 342.314 88.0156 340.084 88.2246C337.089 88.7122 335.382 88.9909 334.964 89.0605C332.944 88.5729 330.401 87.4932 327.336 85.8213C324.271 84.1494 322.112 82.582 320.858 81.1191C319.604 79.6562 318.977 75.8597 318.977 69.7295C318.977 67.57 319.917 65.4801 321.798 63.46C323.749 61.4398 325.595 60.569 327.336 60.8477L343.637 63.7734L345.205 63.46C345.553 62.7633 345.831 61.9971 346.04 61.1611C346.11 60.6038 346.11 59.8027 346.04 58.7578C345.831 57.5736 345.727 56.7725 345.727 56.3545C345.727 55.9365 345.866 55.5534 346.145 55.2051C346.075 48.3783 346.145 42.3525 346.354 37.1279C344.264 37.1279 341.687 37.5459 338.622 38.3818C334.303 39.5661 331.795 40.2279 331.098 40.3672C330.401 40.5065 327.824 40.7852 323.366 41.2031C320.161 41.5514 317.653 42.1087 315.842 42.875C315.773 42.8053 314.937 42.666 313.334 42.457C312.289 42.1784 311.697 41.5863 311.558 40.6807C312.882 38.0335 316.225 35.3167 321.589 32.5303C325.978 30.3011 330.192 28.6641 334.233 27.6191C336.114 27.3405 338.865 26.7135 342.488 25.7383C344.508 24.9023 345.797 23.4395 346.354 21.3496C346.354 21.3496 346.319 19.9912 346.249 17.2744C346.249 15.3936 345.936 14.0352 345.309 13.1992C345.03 12.8509 344.055 12.0846 342.383 10.9004C341.199 9.99479 340.537 9.01953 340.398 7.97461C341.025 6.7207 342.453 6.02409 344.682 5.88477ZM300.691 30.5449C300.691 31.1719 300.029 34.446 298.706 40.3672C297.382 46.2188 296.476 50.5726 295.989 53.4287C295.083 58.2354 294.491 62.5892 294.212 66.4902L295.048 68.4756C295.257 68.6149 295.466 68.6846 295.675 68.6846C296.233 68.6846 296.964 68.2318 297.87 67.3262C298.775 66.4206 299.437 65.9678 299.855 65.9678C299.925 66.3161 299.959 66.6644 299.959 67.0127C299.959 68.1969 299.507 70.1475 298.601 72.8643C297.974 74.8844 297.312 76.9046 296.616 78.9248C296.198 81.9202 295.397 86.3438 294.212 92.1953L292.54 92.7178C291.356 91.9515 289.928 90.4886 288.256 88.3291C286.584 86.1696 285.296 84.8112 284.39 84.2539C283.902 82.3034 283.659 79.4821 283.659 75.79C283.659 69.4508 284.878 59.0016 287.316 44.4424C289.963 29.0472 291.287 21.3496 291.287 21.3496C291.287 21.3496 290.903 19.1204 290.137 14.6621C293.202 15.0801 295.78 17.1003 297.87 20.7227C299.75 23.9967 300.691 27.2708 300.691 30.5449ZM320.858 69.3115C320.858 71.471 321.868 73.3867 323.888 75.0586C324.863 75.8945 326.814 77.0439 329.74 78.5068H330.576C337.333 78.5765 341.164 76.835 342.07 73.2822C340.468 70.6351 337.995 68.5801 334.651 67.1172C331.586 65.8633 328.312 65.2363 324.829 65.2363C322.181 65.2363 320.858 66.5947 320.858 69.3115ZM418.102 8.18359C418.451 8.32292 418.799 8.39258 419.147 8.39258C419.565 8.39258 420.123 8.28809 420.819 8.0791C421.586 7.80046 422.178 7.66113 422.596 7.66113C423.014 7.66113 423.432 7.76562 423.85 7.97461C426.845 7.97461 430.746 9.15885 435.553 11.5273L435.971 13.5127C434.508 14.7666 433.498 18.3542 432.94 24.2754C433.289 24.3451 433.672 24.3799 434.09 24.3799C435.413 24.3799 437.259 23.8574 439.628 22.8125C442.066 21.7676 443.877 21.2451 445.061 21.2451C449.311 21.2451 452.341 22.1507 454.152 23.9619C451.993 26.1214 447.987 27.6191 442.136 28.4551C436.284 29.291 432.836 30.4404 431.791 31.9033L431.477 37.2324L433.672 37.5459C435.553 37.1279 438.513 36.8493 442.554 36.71C446.664 36.501 449.764 36.1527 451.853 35.665C454.431 36.083 456.799 36.5706 458.959 37.1279C461.118 37.6852 463.313 38.2077 465.542 38.6953C467.98 39.4616 469.478 40.9593 470.035 43.1885C469.408 44.6514 468.642 45.6615 467.736 46.2188C466.622 46.776 465.507 47.3333 464.393 47.8906C457.566 43.9199 451.087 41.9346 444.957 41.9346C445.654 41.9346 443.459 42.0739 438.374 42.3525C435.518 42.4222 431.268 42.666 425.626 43.084C421.168 43.7109 416.291 44.8952 410.997 46.6367C404.588 48.7962 400.234 51.0951 397.935 53.5332L396.055 53.6377C395.915 52.6624 395.219 51.1995 393.965 49.249C392.85 47.5075 392.293 46.2188 392.293 45.3828L394.592 46.2188C398.911 45.1738 403.334 43.7458 407.862 41.9346C408.698 35.5954 409.116 31.7988 409.116 30.5449C409.116 27.8978 407.827 25.0765 405.25 22.0811L408.594 20.8271L415.072 22.3945L416.117 25.7383C415.49 26.9225 415.072 29.1169 414.863 32.3213C414.654 35.8044 414.306 38.2077 413.818 39.5312C417.719 39.5312 421.411 39.0785 424.894 38.1729C424.894 37.4762 424.72 36.4661 424.372 35.1426C424.093 33.819 423.954 32.8089 423.954 32.1123C423.954 31.555 424.024 30.6842 424.163 29.5C424.372 28.2461 424.477 27.3057 424.477 26.6787C424.477 25.9821 424.372 24.972 424.163 23.6484C424.024 22.3249 423.954 21.3148 423.954 20.6182C423.954 20.2699 424.024 19.5732 424.163 18.5283C424.233 17.6227 424.233 16.9261 424.163 16.4385C424.024 14.9756 423.571 13.9655 422.805 13.4082C421.272 12.4329 420.436 11.8408 420.297 11.6318C419.809 10.8656 418.973 9.78581 417.789 8.39258L418.102 8.18359ZM384.978 13.5127C385.257 13.5127 385.745 13.5824 386.441 13.7217C387.138 13.861 387.626 13.9307 387.904 13.9307C391.736 14.279 394.313 15.6025 395.637 17.9014L394.174 22.29C391.527 22.29 389.994 23.0215 389.576 24.4844C388.392 23.8574 386.337 22.2204 383.411 19.5732C380.903 17.2744 378.779 15.9508 377.037 15.6025L377.56 13.6172L384.978 13.5127ZM378.291 35.665C378.918 35.9437 380.694 36.2223 383.62 36.501C385.78 36.6403 387.277 37.4762 388.113 39.0088C388.113 39.984 387.347 40.9941 385.814 42.0391C384.7 42.8053 383.55 43.5716 382.366 44.3379C382.018 44.6862 380.834 46.1491 378.813 48.7266C377.49 50.2591 375.922 51.3737 374.111 52.0703L375.888 47.1592C371.708 45.348 368.573 42.8053 366.483 39.5312C366.901 39.6009 367.354 39.6357 367.842 39.6357C369.235 39.6357 370.977 39.1133 373.066 38.0684C375.853 36.6751 377.594 35.874 378.291 35.665ZM446.629 47.1592C451.993 48.2041 456.416 49.8411 459.899 52.0703C459.133 53.1152 458.088 54.7523 456.765 56.9814L453.734 56.25C452.62 56.5983 449.555 58.1309 444.539 60.8477C440.777 62.7982 437.538 63.7386 434.821 63.6689C433.916 64.1566 433.219 64.4004 432.731 64.4004C432.383 64.4004 432.07 64.3307 431.791 64.1914C437.921 61.1263 442.728 56.4242 446.211 50.085L445.061 48.2041L446.629 47.1592ZM390.308 52.4883L391.143 54.2646C390.238 56.0758 389.297 58.6533 388.322 61.9971C387.208 65.8285 386.407 68.4408 385.919 69.834C384.735 72.4811 383.55 75.0586 382.366 77.5664C381.182 80.4922 380.59 83.2438 380.59 85.8213C380.59 85.8213 380.694 86.901 380.903 89.0605L377.56 90.9414C376.166 90.0358 375.365 87.9808 375.156 84.7764C375.017 81.5719 374.251 79.3776 372.857 78.1934C372.927 77.8451 373.31 77.1833 374.007 76.208C374.773 75.1631 375.156 74.3271 375.156 73.7002L376.619 74.1182C379.475 71.9587 382.053 68.4059 384.352 63.46C386.999 57.7477 388.984 54.0905 390.308 52.4883ZM424.894 56.25L423.014 60.1162H418.834L416.535 61.8926L410.057 59.6982C409.778 58.723 409.255 57.8174 408.489 56.9814C407.793 56.0758 407.061 55.2399 406.295 54.4736C406.434 54.404 407.131 54.2995 408.385 54.1602C409.29 54.0905 410.126 53.6725 410.893 52.9062C411.519 52.6973 412.146 52.5928 412.773 52.5928C415.978 52.5928 419.217 52.8714 422.491 53.4287C423.606 53.6377 424.407 54.5781 424.894 56.25ZM418.834 66.8037C417.092 72.1676 414.41 77.6709 410.788 83.3135C409.743 85.1247 408.698 86.9359 407.653 88.7471C406.608 90.5583 405.25 92.265 403.578 93.8672C402.951 93.0312 402.289 91.0807 401.593 88.0156C401.035 85.5078 400.095 83.8359 398.771 83C399.607 82.5124 400.095 81.6416 400.234 80.3877C400.443 79.0641 400.583 78.3327 400.652 78.1934L402.847 79.3428C407.653 77.1833 412.982 73.0036 418.834 66.8037ZM433.672 71.4014C435.622 71.5407 438.583 71.7845 442.554 72.1328C445.828 72.5508 449.624 73.8047 453.943 75.8945C458.262 77.9147 461.397 80.0394 463.348 82.2686C464.602 83.8011 465.228 85.7168 465.228 88.0156C464.532 88.8516 463.487 90.1403 462.094 91.8818C457.914 89.8617 453.073 86.6224 447.569 82.1641C440.394 76.3822 435.762 72.7946 433.672 71.4014ZM482.432 7.45215C488.075 7.73079 492.463 9.29818 495.598 12.1543V12.4678C495.668 13.5127 495.145 14.4183 494.031 15.1846C492.498 16.2295 491.627 16.9609 491.418 17.3789C489.607 20.7227 485.985 24.1361 480.551 27.6191C475.187 31.0326 470.729 32.7393 467.176 32.7393C466.828 32.7393 466.549 32.7044 466.34 32.6348C467.107 31.5202 469.022 29.5348 472.087 26.6787C478.078 21.3844 481.735 15.3587 483.059 8.60156L482.432 7.45215ZM549.203 25.2158C548.715 26.818 548.088 28.0371 547.322 28.873C545.719 28.5944 544.117 28.3158 542.515 28.0371C540.634 27.6191 539.136 27.027 538.022 26.2607C536.211 25.1462 533.877 22.8822 531.021 19.4688C528.234 15.9857 525.657 13.4779 523.288 11.9453C520.572 10.2734 519.213 8.91504 519.213 7.87012C519.213 7.45215 519.387 6.99935 519.736 6.51172C527.05 7.27799 532.728 8.63639 536.768 10.5869C542.411 13.1644 546.242 17.2048 548.262 22.708L549.203 25.2158ZM502.913 22.3945C503.748 23.0215 505.49 23.6833 508.137 24.3799C510.506 25.0068 512.212 25.9473 513.257 27.2012L511.69 31.4854C517.541 39.5661 522.94 45.1042 527.886 48.0996C530.742 49.8411 534.817 52.0007 540.112 54.5781C546.033 57.2949 550.213 59.2803 552.651 60.5342C554.183 61.3005 556.413 62.5544 559.338 64.2959C560.453 65.1318 561.149 66.4206 561.428 68.1621C560.801 70.7396 559.129 72.3766 556.413 73.0732C555.298 73.3519 552.755 73.4912 548.785 73.4912C546.695 73.4912 545.093 73.6305 543.978 73.9092C543.003 73.6305 541.679 72.8294 540.007 71.5059C538.405 70.1823 537.116 69.416 536.141 69.207C535.653 69.5553 535.131 70.4958 534.574 72.0283C533.668 74.1878 533.215 75.3024 533.215 75.3721C532.728 76.2777 531.404 77.9147 529.245 80.2832C527.085 82.582 525.552 84.6022 524.647 86.3438C522.487 86.6224 521.408 86.7617 521.408 86.7617C521.059 86.7617 520.467 86.6224 519.631 86.3438C518.795 86.1348 518.203 86.0303 517.855 86.0303C517.507 86.0303 516.949 86.0651 516.183 86.1348C515.486 86.2044 514.999 86.2393 514.72 86.2393C514.372 86.2393 513.815 86.2044 513.048 86.1348C512.282 86.0651 511.69 86.0303 511.272 86.0303C510.297 86.0303 508.52 86.4134 505.943 87.1797C503.714 87.8763 502.077 88.1201 501.032 87.9111C500.753 88.2594 500.509 89.1999 500.3 90.7324C500.161 92.265 499.743 93.3447 499.046 93.9717C497.235 93.4144 495.877 92.265 494.971 90.5234C494.553 89.6178 493.822 86.901 492.777 82.373C491.941 78.472 491.418 75.8249 491.209 74.4316C490.861 71.7148 490.548 70.0081 490.269 69.3115C489.572 67.4307 488.388 66.3509 486.716 66.0723C477.451 77.2878 468.221 82.791 459.026 82.582H458.085C462.195 79.1686 468.151 73.8395 475.954 66.5947C480.203 62.1364 484.592 56.1803 489.12 48.7266C493.299 41.8301 496.678 35.2122 499.255 28.873C498.837 27.8281 498.628 27.1663 498.628 26.8877C498.628 25.9124 499.116 25.0765 500.091 24.3799C501.066 23.6833 502.007 23.0215 502.913 22.3945ZM505.838 34.7246C503.261 37.9987 500.579 42.1784 497.792 47.2637C495.494 51.722 493.23 56.1455 491 60.5342L493.404 61.6836C495.772 60.4993 501.868 59.0365 511.69 57.2949C511.968 57.2949 513.501 57.1904 516.288 56.9814C517.89 56.9118 519.457 56.4938 520.99 55.7275C521.268 55.7275 521.721 55.832 522.348 56.041C523.045 56.1803 523.602 56.25 524.02 56.25C524.229 56.25 524.473 56.1803 524.751 56.041C523.079 54.1602 520.572 51.2692 517.228 47.3682C517.089 47.2985 514.964 44.4076 510.854 38.6953C509.461 36.9538 507.789 35.6302 505.838 34.7246ZM499.673 68.7891L498.315 70.3564L499.36 76.835C499.36 76.9046 499.325 77.1833 499.255 77.6709C499.186 78.0889 499.151 78.3327 499.151 78.4023C499.151 78.4023 499.22 79.4473 499.36 81.5371C499.708 81.6764 500.056 81.7461 500.405 81.7461C500.683 81.7461 503.783 81.0146 509.704 79.5518C511.028 79.2731 513.954 79.2035 518.482 79.3428C518.83 78.0889 519.771 75.7552 521.303 72.3418C522.487 69.4857 523.254 67.1172 523.602 65.2363C523.114 64.679 522.418 64.4004 521.512 64.4004C514.616 64.4004 507.336 65.8633 499.673 68.7891ZM615.622 12.2588C616.528 12.9554 618.165 13.5824 620.533 14.1396C622.971 14.6273 624.643 15.2194 625.549 15.916C627.012 16.8913 627.743 18.4935 627.743 20.7227C624.678 22.0462 620.359 24.2057 614.786 27.2012C612.975 28.3158 610.92 30.2314 608.621 32.9482C606.949 35.1774 605.242 37.4066 603.501 39.6357C599.669 44.0941 597.754 49.1445 597.754 54.7871C597.754 60.8477 599.948 66.0723 604.337 70.4609C604.685 70.8092 608.76 73.8743 616.562 79.6562C620.812 82.8607 622.867 86.0651 622.727 89.2695V90.1055L621.056 91.8818H620.011C612.139 92.0212 605.208 88.1898 599.217 80.3877C593.644 73.0036 590.857 65.2363 590.857 57.0859C590.857 51.3737 591.624 46.4974 593.156 42.457C594.758 38.4167 597.51 34.0977 601.411 29.5L599.426 29.082C594.48 30.6146 588.767 32.1471 582.289 33.6797C579.502 34.237 575.427 35.3864 570.063 37.1279L568.496 36.6055L557.629 27.7236V26.2607C558.813 27.0967 560.346 27.5146 562.226 27.5146C563.898 27.5146 565.187 27.3753 566.093 27.0967L598.694 19.2598C600.784 18.4935 603.954 17.5182 608.203 16.334C609.248 16.125 610.432 15.3587 611.756 14.0352C612.801 12.8509 614.089 12.2588 615.622 12.2588ZM640.909 3.58594C641.745 4.35221 643.487 5.3623 646.134 6.61621C648.641 7.80046 650.383 8.88021 651.358 9.85547C652.891 11.4577 653.657 13.4779 653.657 15.916C653.657 16.4036 653.622 16.9261 653.553 17.4834L651.358 19.2598L649.373 18.8418C647.074 17.1699 644.845 14.5576 642.685 11.0049C640.038 6.68587 638.123 3.86458 636.938 2.54102L640.909 3.58594ZM644.775 23.7529C644.775 24.3799 644.706 25.0417 644.566 25.7383L642.476 27.6191H640.387C638.157 25.7383 635.928 22.917 633.699 19.1553C630.355 13.5127 628.509 10.4128 628.161 9.85547C632.062 11.1094 635.545 12.7464 638.61 14.7666C642.72 17.6227 644.775 20.6182 644.775 23.7529ZM712.971 9.95996V10.6914C711.439 11.2487 710.603 12.6419 710.463 14.8711C710.185 18.2845 710.045 19.9912 710.045 19.9912L710.254 22.3945L712.971 23.5439L722.166 21.5586C729.899 23.1608 734.81 26.2607 736.9 30.8584L736.586 32.0078C734.914 32.3561 734.078 32.5303 734.078 32.5303C732.755 32.5303 730.839 32.3213 728.331 31.9033C725.824 31.4157 723.908 31.1719 722.584 31.1719C721.121 31.1719 719.206 31.2415 716.837 31.3809C713.911 31.5898 712.065 31.6943 711.299 31.6943C710.533 31.6943 710.15 33.401 710.15 36.8145C710.15 36.3965 710.01 39.3223 709.732 45.5918C712.17 49.2142 713.389 53.0456 713.389 57.0859C713.389 60.987 711.996 65.724 709.209 71.2969C707.328 75.1283 705.587 77.9495 703.985 79.7607C698.133 85.891 691.132 90.21 682.982 92.7178C684.375 91.3942 686.395 89.374 689.042 86.6572C690.854 84.637 692.804 81.9551 694.894 78.6113C697.402 74.4316 698.656 71.4362 698.656 69.625C698.656 68.7891 698.342 68.1273 697.715 67.6396L689.565 68.998C686.987 68.7194 684.445 68.4408 681.937 68.1621C678.663 67.6048 677.026 65.5498 677.026 61.9971C677.026 56.4938 679.568 51.0602 684.654 45.6963C689.739 40.3324 694.964 37.8594 700.328 38.2773C701.581 37.0234 702.069 36.0133 701.79 35.2471L700.954 32.8438C683.678 35.1426 670.721 39.0088 662.083 44.4424C660.829 44.3031 658.774 42.875 655.918 40.1582C653.132 37.3717 651.739 35.4212 651.739 34.3066C654.873 34.7246 656.441 34.9336 656.441 34.9336C657.207 34.9336 660.516 34.2718 666.368 32.9482C674.03 30.9977 685.559 28.3158 700.954 24.9023C701.721 23.7181 702.174 21.8024 702.313 19.1553C702.383 15.9508 702.557 13.8958 702.835 12.9902C702.766 11.597 701.895 10.4128 700.223 9.4375C698.551 8.46224 697.611 7.48698 697.402 6.51172C699.143 4.77018 700.745 3.89941 702.208 3.89941C704.438 3.89941 706.667 4.38704 708.896 5.3623C711.752 6.54655 713.11 8.0791 712.971 9.95996ZM682.25 58.3398C682.25 60.4297 683.644 61.4746 686.43 61.4746C689.983 61.4746 693.64 60.2555 697.402 57.8174C700.328 56.0758 701.79 53.0107 701.79 48.6221C701.79 45.348 700.641 43.7109 698.342 43.7109C695.695 43.7109 692.491 45.2783 688.729 48.4131C687.475 49.5277 686.151 51.0602 684.758 53.0107C683.086 55.2399 682.25 57.0163 682.25 58.3398ZM785.66 0.137695C786.844 0.137695 787.994 0.34668 789.108 0.764648C790.223 1.11296 791.198 1.70508 792.034 2.54102C792.94 3.30729 793.636 4.24772 794.124 5.3623C794.612 6.40723 794.821 7.59147 794.751 8.91504L792.974 25.1113L787.645 65.2363H783.466L777.405 19.8867L776.36 9.54199C776.36 7.10384 777.231 4.94434 778.973 3.06348C780.714 1.11296 782.943 0.137695 785.66 0.137695ZM785.451 73.7002C787.68 73.7002 789.631 74.4665 791.303 75.999C792.974 77.5316 793.81 79.5169 793.81 81.9551C793.81 84.1842 792.94 86.0999 791.198 87.7021C789.526 89.3044 787.611 90.1055 785.451 90.1055C783.222 90.1055 781.306 89.3044 779.704 87.7021C778.102 86.1696 777.301 84.2539 777.301 81.9551C777.301 79.5169 778.067 77.5316 779.599 75.999C781.202 74.4665 783.152 73.7002 785.451 73.7002Z" fill="#251607"/>
</svg>
