<svg width="1729" height="254" viewBox="0 0 1729 254" fill="none" xmlns="http://www.w3.org/2000/svg">
<path d="M58.4746 0.759766L63.7188 1.45898H70.3613C94.1348 1.45898 111.266 12.5299 121.754 34.6719C123.618 39.5664 125.6 47.2578 127.697 57.7461L126.998 61.2422C127.464 66.8359 127.697 71.6139 127.697 75.5762C126.066 78.8392 124.085 80.4707 121.754 80.4707C119.656 80.4707 118.607 80.2376 118.607 79.7715L109.867 80.4707H91.3379C85.7441 80.4707 82.9473 78.0234 82.9473 73.1289L83.9961 71.7305V61.9414C83.9961 48.6562 78.2858 42.0137 66.8652 42.0137H64.418C51.599 42.0137 45.1895 48.1901 45.1895 60.543C45.1895 75.9258 61.7376 105.41 94.834 148.994C115.111 181.158 125.25 207.029 125.25 226.607V227.307C123.618 240.592 119.423 251.546 112.664 260.17C101.01 274.387 84.6953 281.496 63.7188 281.496C30.1562 281.496 9.64583 266.463 2.1875 236.396C1.25521 228.239 0.55599 223.461 0.0898438 222.062C0.55599 217.867 1.48828 214.488 2.88672 211.924C1.48828 209.36 0.789062 207.379 0.789062 205.98V204.582C0.789062 200.62 4.05208 198.639 10.5781 198.639C11.2773 198.639 14.1908 198.872 19.3184 199.338C27.9421 198.872 33.4193 198.639 35.75 198.639C39.7122 198.639 42.3926 200.27 43.791 203.533C43.791 204.232 43.5579 205.048 43.0918 205.98C43.0918 224.16 45.5391 234.532 50.4336 237.096C51.832 238.261 55.0951 239.426 60.2227 240.592H65.4668C75.0228 240.592 80.6165 234.415 82.248 222.062C82.248 208.544 68.4967 182.44 40.9941 143.75C40.9941 142.585 38.4303 139.322 33.3027 133.961C12.5592 102.729 2.1875 76.8581 2.1875 56.3477V55.2988C2.1875 32.9238 15.3561 15.6764 41.6934 3.55664C44.9564 3.55664 50.5501 2.62435 58.4746 0.759766ZM231.196 4.60547L235.041 5.30469H257.416C261.379 5.77083 263.36 7.75195 263.36 11.248C263.36 13.8118 263.127 15.0938 262.66 15.0938C263.127 19.9883 263.36 23.7174 263.36 26.2812V42.7129C263.36 47.8405 263.593 51.5697 264.059 53.9004C263.593 57.6296 263.36 61.8249 263.36 66.4863V82.2188C263.36 88.5117 263.593 93.4062 264.059 96.9023C263.593 100.398 263.36 105.41 263.36 111.936V123.123C263.36 128.95 263.593 134.893 264.059 140.953L263.36 144.799C263.826 152.257 264.059 159.249 264.059 165.775V182.207C264.059 183.139 264.292 184.072 264.758 185.004C264.292 185.936 264.059 186.985 264.059 188.15V217.867C264.059 218.333 264.292 218.566 264.758 218.566C264.292 219.499 264.059 220.314 264.059 221.014C264.059 223.111 264.292 224.51 264.758 225.209C264.292 229.637 264.059 233.133 264.059 235.697C264.059 242.923 264.292 254.343 264.758 269.959C264.758 276.019 261.262 279.049 254.27 279.049H225.951C221.523 279.049 219.309 273.105 219.309 261.219C219.775 258.422 220.008 256.208 220.008 254.576V233.6C220.008 230.803 220.241 227.307 220.707 223.111C220.241 222.179 220.008 221.48 220.008 221.014C220.008 219.149 220.241 216.818 220.707 214.021C220.241 202.834 220.008 192.462 220.008 182.906V177.662L220.707 173.117C220.241 172.185 220.008 170.903 220.008 169.271L220.707 165.076C220.241 162.279 220.008 159.715 220.008 157.385V156.686L216.512 155.986H183.649C183.649 156.919 183.416 157.385 182.95 157.385L183.649 166.475V178.361C183.649 179.993 183.416 181.275 182.95 182.207L183.649 186.402V208.078C183.649 215.303 183.882 220.548 184.348 223.811C183.882 228.239 183.649 233.716 183.649 240.242V264.016C183.649 274.038 181.435 279.049 177.006 279.049H149.387C143.793 279.049 140.996 276.835 140.996 272.406C140.996 266.113 141.229 258.888 141.696 250.73C141.696 247.467 141.463 240.941 140.996 231.152C141.463 214.138 141.696 202.484 141.696 196.191C141.229 183.605 140.996 176.147 140.996 173.816C140.996 173.35 141.229 172.651 141.696 171.719C141.229 167.523 140.996 164.027 140.996 161.23V148.645C140.996 142.818 140.763 137.574 140.297 132.912L140.996 126.27C140.53 105.526 140.064 93.5228 139.598 90.2598C140.064 86.7637 140.297 84.7826 140.297 84.3164C139.831 61.9414 139.365 49.472 138.899 46.9082C139.365 43.8783 139.598 40.4987 139.598 36.7695C139.598 32.3411 139.365 23.834 138.899 11.248C138.899 8.91732 140.647 6.9362 144.143 5.30469C145.541 5.30469 147.289 5.53776 149.387 6.00391C158.011 5.53776 165.469 5.30469 171.762 5.30469H174.559C178.288 5.30469 181.085 6.81966 182.95 9.84961C182.95 10.0827 182.6 13.3457 181.901 19.6387C182.6 40.8483 182.95 52.735 182.95 55.2988L181.901 56.6973L182.95 61.2422V71.0312C182.95 72.1966 183.183 73.1289 183.649 73.8281C183.649 74.2943 183.416 74.5273 182.95 74.5273L183.649 83.6172V96.2031C183.649 97.8346 183.416 99.1165 182.95 100.049L183.649 104.594V115.082C190.408 115.548 195.302 115.781 198.332 115.781H211.268L220.008 115.082V102.146C220.008 93.9889 220.241 87.5794 220.707 82.918C219.775 70.099 219.309 49.472 219.309 21.0371V20.3379C219.309 18.2402 219.076 15.4434 218.61 11.9473C218.61 7.05273 222.805 4.60547 231.196 4.60547ZM299.034 4.95508C300.665 5.88737 301.947 6.35352 302.88 6.35352L314.766 5.6543L316.165 6.35352C317.097 5.88737 318.029 5.6543 318.962 5.6543C321.991 5.6543 323.74 8.33464 324.206 13.6953C323.74 15.0938 323.273 15.793 322.807 15.793L323.506 23.4844C323.506 38.168 323.273 57.8626 322.807 82.5684C323.273 91.1921 323.506 96.4362 323.506 98.3008C323.04 104.128 322.807 108.323 322.807 110.887C323.273 124.172 323.506 132.329 323.506 135.359C323.506 138.156 323.273 144.1 322.807 153.189C323.273 161.58 323.506 169.738 323.506 177.662C323.506 183.023 323.273 187.917 322.807 192.346C323.273 197.939 323.506 205.048 323.506 213.672C323.506 222.995 323.273 230.453 322.807 236.047C323.273 242.107 323.506 250.497 323.506 261.219V268.561C323.506 275.553 320.593 279.049 314.766 279.049H287.846C282.486 279.049 279.805 276.368 279.805 271.008V267.162C279.805 262.268 280.038 259.82 280.505 259.82C280.038 255.625 279.805 252.129 279.805 249.332V247.234C279.805 231.385 280.038 217.751 280.505 206.33C280.038 198.872 279.805 191.996 279.805 185.703C279.805 182.673 280.038 176.73 280.505 167.873C280.038 161.347 279.805 151.441 279.805 138.156C279.805 136.525 279.572 135.359 279.106 134.66L279.805 130.115V110.188C279.805 108.323 279.572 106.109 279.106 103.545C279.572 102.613 279.805 101.098 279.805 99C279.805 96.6693 279.572 95.1543 279.106 94.4551C279.572 90.2598 279.805 86.7637 279.805 83.9668V55.2988C279.805 53.2012 279.572 51.2201 279.106 49.3555C279.572 47.4909 279.805 45.5098 279.805 43.4121V30.8262C279.805 29.8939 281.786 29.0781 285.749 28.3789L286.448 24.8828L285.049 24.1836L280.505 24.8828L279.805 23.4844V12.2969C280.505 7.86849 282.719 5.6543 286.448 5.6543H294.839L299.034 4.95508ZM367.921 5.6543L379.458 6.35352C381.789 6.35352 389.48 6.12044 402.532 5.6543C424.441 5.6543 440.756 13.8118 451.478 30.127C457.537 41.3145 460.567 53.6673 460.567 67.1855V87.8125C458.47 102.496 455.207 113.334 450.778 120.326C447.748 124.288 443.786 128.717 438.892 133.611C450.778 143.4 456.722 150.626 456.722 155.287C461.616 164.144 464.063 184.188 464.063 215.42C463.131 223.344 461.616 228.006 459.519 229.404L461.966 230.803C459.402 243.855 454.974 253.993 448.681 261.219C436.095 273.105 422.227 279.049 407.077 279.049C399.153 278.583 394.491 278.35 393.093 278.35C375.845 278.816 364.891 279.049 360.229 279.049L358.831 279.748C357.899 279.282 356.966 279.049 356.034 279.049H346.245C342.283 279.049 340.302 276.602 340.302 271.707V255.275C340.302 254.809 340.069 254.576 339.603 254.576C340.069 253.644 340.302 252.945 340.302 252.479C340.302 250.381 340.069 249.332 339.603 249.332L340.302 240.592V218.217C340.302 212.856 340.069 209.127 339.603 207.029C340.069 203.3 340.302 199.105 340.302 194.443V176.613C340.302 167.757 340.535 160.648 341.001 155.287C340.535 151.325 340.302 145.382 340.302 137.457C340.302 128.367 340.535 118.695 341.001 108.439C341.001 107.041 340.768 102.146 340.302 93.7559L341.7 17.541L341.001 12.9961C341.001 8.56771 344.497 6.35352 351.489 6.35352C358.015 6.35352 363.492 6.12044 367.921 5.6543ZM384.003 47.6074V69.9824C384.003 76.2754 384.236 81.1699 384.702 84.666C384.236 88.1621 384.003 93.1732 384.003 99.6992V116.83H397.987C410.34 114.965 416.517 107.973 416.517 95.8535V93.0566C416.517 85.5983 416.866 76.9746 417.565 67.1855C415.468 53.2012 409.991 46.209 401.134 46.209H385.401C384.469 46.4421 384.003 46.9082 384.003 47.6074ZM383.304 158.084V173.816C383.304 177.079 383.071 179.993 382.604 182.557L384.003 212.273C383.537 215.77 383.304 220.664 383.304 226.957V233.949L384.003 238.844C404.746 238.844 415.118 236.63 415.118 232.201C418.614 232.201 420.595 218.683 421.061 191.646C421.061 169.738 416.866 158.783 408.476 158.783C408.476 158.317 405.329 157.618 399.036 156.686H384.702C383.77 156.919 383.304 157.385 383.304 158.084ZM507.079 4.95508C511.974 4.95508 514.421 8.45117 514.421 15.4434C514.421 20.804 514.654 23.4844 515.12 23.4844L514.421 28.7285C514.421 37.5853 514.654 47.724 515.12 59.1445C515.12 61.0091 514.887 67.1855 514.421 77.6738C514.887 88.3952 515.12 95.8535 515.12 100.049C515.12 103.545 514.887 110.188 514.421 119.977C514.887 129.066 515.12 137.224 515.12 144.449C515.12 148.411 514.887 153.073 514.421 158.434C514.887 164.027 515.12 171.253 515.12 180.109C515.12 189.898 514.654 198.056 513.722 204.582C514.188 207.146 514.421 209.593 514.421 211.924V218.566L513.722 223.111C516.752 234.765 522.113 240.592 529.804 240.592H537.495C548.217 240.592 553.577 233.017 553.577 217.867C553.577 206.447 553.344 197.473 552.878 190.947C553.344 183.489 553.577 178.361 553.577 175.564C553.111 160.648 552.878 152.024 552.878 149.693C552.878 146.896 553.111 142.118 553.577 135.359C553.111 126.036 552.878 119.627 552.878 116.131C552.878 111.236 553.111 101.098 553.577 85.7148C553.577 82.918 553.344 77.7904 552.878 70.332C553.344 57.2799 553.577 42.946 553.577 27.3301V17.541C553.577 17.0749 553.81 16.8418 554.277 16.8418L553.577 15.4434V11.5977C554.51 7.16927 556.724 4.95508 560.22 4.95508L564.066 5.6543H589.238C594.132 5.6543 596.579 7.63542 596.579 11.5977V24.8828C596.579 25.582 596.346 25.9316 595.88 25.9316L596.579 27.3301V65.7871C596.579 66.9525 596.812 68.0013 597.279 68.9336L596.579 70.332C596.579 75.6927 596.812 83.8503 597.279 94.8047C596.812 114.383 596.579 126.503 596.579 131.164C596.579 135.359 596.812 140.254 597.279 145.848C596.812 154.238 596.579 163.678 596.579 174.166V189.549C596.579 191.646 596.812 193.628 597.279 195.492C596.812 197.357 596.579 199.338 596.579 201.436V220.664C596.579 247.701 583.993 267.046 558.822 278.699C550.664 280.564 540.991 281.496 529.804 281.496H529.105C501.835 281.496 483.539 267.162 474.216 238.494C473.517 230.57 472.818 226.607 472.118 226.607C472.118 226.141 472.352 225.908 472.818 225.908C472.352 213.322 472.118 204.232 472.118 198.639V188.85L471.419 184.305C472.118 176.846 472.585 172.185 472.818 170.32C471.885 163.561 471.419 157.618 471.419 152.49C471.419 146.663 471.652 140.72 472.118 134.66C471.652 125.104 471.419 116.714 471.419 109.488C471.419 103.895 471.652 98.7669 472.118 94.1055C471.652 88.5117 471.419 81.2865 471.419 72.4297V67.8848C471.419 60.8926 471.652 55.765 472.118 52.502C471.652 48.3066 471.419 42.8294 471.419 36.0703V21.3867C471.419 10.8984 472.701 5.6543 475.265 5.6543H477.363C484.588 5.6543 494.493 5.42122 507.079 4.95508ZM611.627 4.60547H627.009C638.896 4.60547 644.839 7.05273 644.839 11.9473C648.336 25.9316 653.463 54.1335 660.222 96.5527C660.922 96.5527 662.436 103.895 664.767 118.578L666.166 119.277H669.312L688.541 18.5898C689.473 9.73307 692.153 5.30469 696.582 5.30469C699.145 4.83854 701.709 4.60547 704.273 4.60547C708.002 4.60547 717.092 4.83854 731.543 5.30469C732.242 5.30469 733.174 6.23698 734.339 8.10156C713.596 85.9479 700.311 138.622 694.484 166.125C692.619 170.087 690.638 178.711 688.541 191.996L689.24 203.883L687.841 206.68C688.308 221.13 688.541 230.337 688.541 234.299C688.541 239.893 688.308 247.001 687.841 255.625C688.308 260.053 688.541 265.764 688.541 272.756C688.541 276.252 681.082 278 666.166 278C662.67 277.534 657.775 277.301 651.482 277.301C647.52 277.301 645.539 274.854 645.539 269.959V245.486C645.539 241.524 645.772 236.28 646.238 229.754C645.772 228.822 645.539 228.122 645.539 227.656C645.539 227.19 645.772 226.957 646.238 226.957L644.839 195.842C645.306 192.346 645.539 189.549 645.539 187.451C625.261 106.342 610.694 46.5586 601.838 8.10156C601.838 5.77083 605.101 4.60547 611.627 4.60547ZM765.818 5.30469C772.111 5.30469 779.803 5.53776 788.893 6.00391C792.156 5.53776 795.419 5.30469 798.682 5.30469L802.178 6.00391C804.042 5.53776 806.023 5.30469 808.121 5.30469C814.181 5.30469 817.211 9.73307 817.211 18.5898C819.075 28.3789 826.65 77.5573 839.935 166.125C840.635 166.125 841.217 167.29 841.684 169.621L840.984 171.369C842.383 179.76 843.082 184.887 843.082 186.752L842.383 190.598C843.548 190.598 845.296 197.939 847.627 212.623C846.928 213.788 846.578 214.604 846.578 215.07C851.24 238.145 854.503 257.839 856.367 274.154C856.134 276.718 854.619 278 851.822 278H819.309C814.414 278 811.967 271.59 811.967 258.771C808.004 226.141 805.324 209.826 803.926 209.826H802.877C797.982 209.826 786.911 210.059 769.664 210.525L765.818 209.826C763.488 217.051 761.273 233.133 759.176 258.072C758.243 271.357 755.33 278 750.435 278H734.703C720.952 278 714.076 276.718 714.076 274.154V272.756C719.437 233.133 731.09 158.55 749.037 49.0059C752.999 23.3678 755.913 9.03385 757.777 6.00391C761.273 5.53776 763.954 5.30469 765.818 5.30469ZM770.363 168.922L771.762 169.621H775.607C777.006 169.621 777.705 169.388 777.705 168.922L781.551 169.621H799.381C799.381 161.464 797.4 144.216 793.437 117.879C793.904 116.947 794.137 116.247 794.137 115.781L788.893 78.0234L789.592 76.2754C789.126 71.847 788.193 69.6328 786.795 69.6328H785.396C782.6 69.6328 779.57 88.9779 776.307 127.668C775.374 127.668 773.626 140.72 771.062 166.824C770.596 166.824 770.363 167.523 770.363 168.922ZM969.669 0.759766L974.913 1.45898H981.555C1005.33 1.45898 1022.46 12.5299 1032.95 34.6719C1034.81 39.5664 1036.79 47.2578 1038.89 57.7461L1038.19 61.2422C1038.66 66.8359 1038.89 71.6139 1038.89 75.5762C1037.26 78.8392 1035.28 80.4707 1032.95 80.4707C1030.85 80.4707 1029.8 80.2376 1029.8 79.7715L1021.06 80.4707H1002.53C996.938 80.4707 994.141 78.0234 994.141 73.1289L995.19 71.7305V61.9414C995.19 48.6562 989.48 42.0137 978.059 42.0137H975.612C962.793 42.0137 956.383 48.1901 956.383 60.543C956.383 75.9258 972.932 105.41 1006.03 148.994C1026.31 181.158 1036.44 207.029 1036.44 226.607V227.307C1034.81 240.592 1030.62 251.546 1023.86 260.17C1012.2 274.387 995.889 281.496 974.913 281.496C941.35 281.496 920.84 266.463 913.381 236.396C912.449 228.239 911.75 223.461 911.284 222.062C911.75 217.867 912.682 214.488 914.081 211.924C912.682 209.36 911.983 207.379 911.983 205.98V204.582C911.983 200.62 915.246 198.639 921.772 198.639C922.471 198.639 925.385 198.872 930.512 199.338C939.136 198.872 944.613 198.639 946.944 198.639C950.906 198.639 953.586 200.27 954.985 203.533C954.985 204.232 954.752 205.048 954.286 205.98C954.286 224.16 956.733 234.532 961.628 237.096C963.026 238.261 966.289 239.426 971.417 240.592H976.661C986.217 240.592 991.81 234.415 993.442 222.062C993.442 208.544 979.691 182.44 952.188 143.75C952.188 142.585 949.624 139.322 944.497 133.961C923.753 102.729 913.381 76.8581 913.381 56.3477V55.2988C913.381 32.9238 926.55 15.6764 952.887 3.55664C956.15 3.55664 961.744 2.62435 969.669 0.759766ZM1049.04 3.55664C1057.67 4.02279 1065.01 4.25586 1071.07 4.25586H1077.01C1078.18 4.25586 1079.23 4.02279 1080.16 3.55664C1080.86 4.02279 1081.79 4.25586 1082.96 4.25586H1092.74C1095.54 4.25586 1097.17 4.48893 1097.64 4.95508C1100.44 4.48893 1102.42 4.25586 1103.58 4.25586C1109.64 4.25586 1121.06 4.48893 1137.84 4.95508C1138.08 4.95508 1139.01 4.72201 1140.64 4.25586C1142.74 4.72201 1144.72 4.95508 1146.58 4.95508H1155.67C1160.57 4.95508 1163.02 8.2181 1163.02 14.7441H1163.72L1163.02 22.0859V35.3711C1163.02 41.1979 1161.73 44.4609 1159.17 45.1602H1140.64C1138.78 45.1602 1136.8 44.9271 1134.7 44.4609C1132.83 44.9271 1130.97 45.1602 1129.1 45.1602H1123.16C1122.46 60.543 1122.11 70.6816 1122.11 75.5762L1123.16 79.7715C1122.46 81.8691 1122.11 83.8503 1122.11 85.7148V95.5039C1122.11 97.6016 1121.88 100.282 1121.41 103.545C1121.88 104.477 1122.11 105.526 1122.11 106.691C1122.11 107.158 1121.88 107.857 1121.41 108.789C1121.88 112.285 1122.11 114.965 1122.11 116.83C1122.11 121.025 1121.88 124.288 1121.41 126.619C1121.88 129.649 1122.11 133.145 1122.11 137.107V139.904C1121.18 149.926 1120.48 154.938 1120.01 154.938L1120.71 156.336L1119.32 193.395C1119.78 197.59 1120.01 200.736 1120.01 202.834C1119.55 209.826 1119.32 214.371 1119.32 216.469C1119.32 217.401 1119.55 220.081 1120.01 224.51C1119.55 229.171 1119.32 233.6 1119.32 237.795C1119.32 240.592 1119.55 244.088 1120.01 248.283C1119.55 251.779 1119.32 256.208 1119.32 261.568C1119.32 263.666 1119.55 266.346 1120.01 269.609C1120.01 277.068 1117.8 280.797 1113.37 280.797L1109.53 280.098H1095.54C1093.91 280.098 1091.7 280.331 1088.9 280.797C1080.51 280.797 1076.31 278.117 1076.31 272.756V266.812C1076.31 265.181 1076.55 264.365 1077.01 264.365L1076.31 260.869V248.283C1076.31 245.719 1076.55 243.505 1077.01 241.641C1076.55 239.077 1076.31 236.513 1076.31 233.949V223.811C1076.31 221.713 1076.78 219.732 1077.71 217.867C1077.71 217.401 1077.48 216.585 1077.01 215.42C1077.48 211.225 1077.71 207.845 1077.71 205.281C1077.71 204.815 1077.48 204.582 1077.01 204.582C1077.48 203.65 1077.71 202.834 1077.71 202.135H1078.41L1082.26 202.834V201.436C1079.23 201.436 1077.71 199.921 1077.71 196.891V194.094L1079.11 188.85L1077.71 186.053L1078.41 174.166C1078.41 171.369 1078.18 168.572 1077.71 165.775C1078.18 150.16 1078.64 139.788 1079.11 134.66C1078.64 132.096 1078.41 130.115 1078.41 128.717C1078.88 116.131 1079.11 109.022 1079.11 107.391C1079.11 105.06 1078.88 102.613 1078.41 100.049C1078.88 93.9889 1079.11 88.0456 1079.11 82.2188V61.2422C1079.11 57.9792 1079.46 52.6185 1080.16 45.1602C1079.23 44.694 1075.96 44.2279 1070.37 43.7617C1063.14 44.2279 1058.25 44.4609 1055.69 44.4609C1045.2 44.4609 1039.95 42.7129 1039.95 39.2168C1039.95 35.2546 1039.72 33.2734 1039.25 33.2734L1039.95 29.4277V24.1836C1039.95 20.2214 1039.72 15.5599 1039.25 10.1992C1039.25 5.77083 1042.52 3.55664 1049.04 3.55664ZM1193.8 5.30469C1200.09 5.30469 1207.78 5.53776 1216.87 6.00391C1220.13 5.53776 1223.4 5.30469 1226.66 5.30469L1230.16 6.00391C1232.02 5.53776 1234 5.30469 1236.1 5.30469C1242.16 5.30469 1245.19 9.73307 1245.19 18.5898C1247.05 28.3789 1254.63 77.5573 1267.91 166.125C1268.61 166.125 1269.2 167.29 1269.66 169.621L1268.96 171.369C1270.36 179.76 1271.06 184.887 1271.06 186.752L1270.36 190.598C1271.53 190.598 1273.27 197.939 1275.6 212.623C1274.91 213.788 1274.56 214.604 1274.56 215.07C1279.22 238.145 1282.48 257.839 1284.34 274.154C1284.11 276.718 1282.6 278 1279.8 278H1247.29C1242.39 278 1239.94 271.59 1239.94 258.771C1235.98 226.141 1233.3 209.826 1231.9 209.826H1230.85C1225.96 209.826 1214.89 210.059 1197.64 210.525L1193.8 209.826C1191.47 217.051 1189.25 233.133 1187.15 258.072C1186.22 271.357 1183.31 278 1178.41 278H1162.68C1148.93 278 1142.05 276.718 1142.05 274.154V272.756C1147.41 233.133 1159.07 158.55 1177.01 49.0059C1180.98 23.3678 1183.89 9.03385 1185.76 6.00391C1189.25 5.53776 1191.93 5.30469 1193.8 5.30469ZM1198.34 168.922L1199.74 169.621H1203.59C1204.98 169.621 1205.68 169.388 1205.68 168.922L1209.53 169.621H1227.36C1227.36 161.464 1225.38 144.216 1221.42 117.879C1221.88 116.947 1222.11 116.247 1222.11 115.781L1216.87 78.0234L1217.57 76.2754C1217.1 71.847 1216.17 69.6328 1214.77 69.6328H1213.37C1210.58 69.6328 1207.55 88.9779 1204.28 127.668C1203.35 127.668 1201.6 140.72 1199.04 166.824C1198.57 166.824 1198.34 167.523 1198.34 168.922ZM1274.22 3.55664C1282.84 4.02279 1290.19 4.25586 1296.25 4.25586H1302.19C1303.35 4.25586 1304.4 4.02279 1305.34 3.55664C1306.03 4.02279 1306.97 4.25586 1308.13 4.25586H1317.92C1320.72 4.25586 1322.35 4.48893 1322.82 4.95508C1325.61 4.48893 1327.59 4.25586 1328.76 4.25586C1334.82 4.25586 1346.24 4.48893 1363.02 4.95508C1363.25 4.95508 1364.19 4.72201 1365.82 4.25586C1367.92 4.72201 1369.9 4.95508 1371.76 4.95508H1380.85C1385.75 4.95508 1388.19 8.2181 1388.19 14.7441H1388.89L1388.19 22.0859V35.3711C1388.19 41.1979 1386.91 44.4609 1384.35 45.1602H1365.82C1363.95 45.1602 1361.97 44.9271 1359.87 44.4609C1358.01 44.9271 1356.15 45.1602 1354.28 45.1602H1348.34C1347.64 60.543 1347.29 70.6816 1347.29 75.5762L1348.34 79.7715C1347.64 81.8691 1347.29 83.8503 1347.29 85.7148V95.5039C1347.29 97.6016 1347.06 100.282 1346.59 103.545C1347.06 104.477 1347.29 105.526 1347.29 106.691C1347.29 107.158 1347.06 107.857 1346.59 108.789C1347.06 112.285 1347.29 114.965 1347.29 116.83C1347.29 121.025 1347.06 124.288 1346.59 126.619C1347.06 129.649 1347.29 133.145 1347.29 137.107V139.904C1346.36 149.926 1345.66 154.938 1345.19 154.938L1345.89 156.336L1344.49 193.395C1344.96 197.59 1345.19 200.736 1345.19 202.834C1344.72 209.826 1344.49 214.371 1344.49 216.469C1344.49 217.401 1344.72 220.081 1345.19 224.51C1344.72 229.171 1344.49 233.6 1344.49 237.795C1344.49 240.592 1344.72 244.088 1345.19 248.283C1344.72 251.779 1344.49 256.208 1344.49 261.568C1344.49 263.666 1344.72 266.346 1345.19 269.609C1345.19 277.068 1342.98 280.797 1338.55 280.797L1334.7 280.098H1320.72C1319.09 280.098 1316.87 280.331 1314.08 280.797C1305.69 280.797 1301.49 278.117 1301.49 272.756V266.812C1301.49 265.181 1301.72 264.365 1302.19 264.365L1301.49 260.869V248.283C1301.49 245.719 1301.72 243.505 1302.19 241.641C1301.72 239.077 1301.49 236.513 1301.49 233.949V223.811C1301.49 221.713 1301.96 219.732 1302.89 217.867C1302.89 217.401 1302.66 216.585 1302.19 215.42C1302.66 211.225 1302.89 207.845 1302.89 205.281C1302.89 204.815 1302.66 204.582 1302.19 204.582C1302.66 203.65 1302.89 202.834 1302.89 202.135H1303.59L1307.43 202.834V201.436C1304.4 201.436 1302.89 199.921 1302.89 196.891V194.094L1304.29 188.85L1302.89 186.053L1303.59 174.166C1303.59 171.369 1303.35 168.572 1302.89 165.775C1303.35 150.16 1303.82 139.788 1304.29 134.66C1303.82 132.096 1303.59 130.115 1303.59 128.717C1304.05 116.131 1304.29 109.022 1304.29 107.391C1304.29 105.06 1304.05 102.613 1303.59 100.049C1304.05 93.9889 1304.29 88.0456 1304.29 82.2188V61.2422C1304.29 57.9792 1304.64 52.6185 1305.34 45.1602C1304.4 44.694 1301.14 44.2279 1295.55 43.7617C1288.32 44.2279 1283.43 44.4609 1280.86 44.4609C1270.37 44.4609 1265.13 42.7129 1265.13 39.2168C1265.13 35.2546 1264.9 33.2734 1264.43 33.2734L1265.13 29.4277V24.1836C1265.13 20.2214 1264.9 15.5599 1264.43 10.1992C1264.43 5.77083 1267.69 3.55664 1274.22 3.55664ZM1411.63 4.95508C1413.26 5.88737 1414.54 6.35352 1415.48 6.35352L1427.36 5.6543L1428.76 6.35352C1429.69 5.88737 1430.63 5.6543 1431.56 5.6543C1434.59 5.6543 1436.34 8.33464 1436.8 13.6953C1436.34 15.0938 1435.87 15.793 1435.4 15.793L1436.1 23.4844C1436.1 38.168 1435.87 57.8626 1435.4 82.5684C1435.87 91.1921 1436.1 96.4362 1436.1 98.3008C1435.64 104.128 1435.4 108.323 1435.4 110.887C1435.87 124.172 1436.1 132.329 1436.1 135.359C1436.1 138.156 1435.87 144.1 1435.4 153.189C1435.87 161.58 1436.1 169.738 1436.1 177.662C1436.1 183.023 1435.87 187.917 1435.4 192.346C1435.87 197.939 1436.1 205.048 1436.1 213.672C1436.1 222.995 1435.87 230.453 1435.4 236.047C1435.87 242.107 1436.1 250.497 1436.1 261.219V268.561C1436.1 275.553 1433.19 279.049 1427.36 279.049H1400.44C1395.08 279.049 1392.4 276.368 1392.4 271.008V267.162C1392.4 262.268 1392.64 259.82 1393.1 259.82C1392.64 255.625 1392.4 252.129 1392.4 249.332V247.234C1392.4 231.385 1392.64 217.751 1393.1 206.33C1392.64 198.872 1392.4 191.996 1392.4 185.703C1392.4 182.673 1392.64 176.73 1393.1 167.873C1392.64 161.347 1392.4 151.441 1392.4 138.156C1392.4 136.525 1392.17 135.359 1391.7 134.66L1392.4 130.115V110.188C1392.4 108.323 1392.17 106.109 1391.7 103.545C1392.17 102.613 1392.4 101.098 1392.4 99C1392.4 96.6693 1392.17 95.1543 1391.7 94.4551C1392.17 90.2598 1392.4 86.7637 1392.4 83.9668V55.2988C1392.4 53.2012 1392.17 51.2201 1391.7 49.3555C1392.17 47.4909 1392.4 45.5098 1392.4 43.4121V30.8262C1392.4 29.8939 1394.38 29.0781 1398.35 28.3789L1399.04 24.8828L1397.65 24.1836L1393.1 24.8828L1392.4 23.4844V12.2969C1393.1 7.86849 1395.32 5.6543 1399.04 5.6543H1407.44L1411.63 4.95508ZM1502.89 1.45898H1520.37C1535.99 3.78971 1547.41 7.98503 1554.63 14.0449C1567.92 26.6309 1574.56 41.1979 1574.56 57.7461C1575.03 57.7461 1575.26 58.4453 1575.26 59.8438C1575.26 61.0091 1575.03 62.0579 1574.56 62.9902C1575.03 66.2533 1575.26 68.9336 1575.26 71.0312V80.4707C1575.26 83.0345 1575.03 85.5983 1574.56 88.1621C1575.03 90.0267 1575.26 92.2409 1575.26 94.8047V100.748L1573.16 104.244C1574.56 104.244 1575.26 107.507 1575.26 114.033V142.002C1575.26 144.566 1575.03 147.13 1574.56 149.693L1575.96 169.621C1575.49 172.185 1575.26 175.098 1575.26 178.361C1575.26 182.324 1575.49 185.82 1575.96 188.85C1575.49 192.346 1575.26 195.026 1575.26 196.891C1575.26 198.522 1575.49 203.3 1575.96 211.225L1575.26 218.566L1575.96 222.062C1573.63 240.941 1570.48 250.381 1566.52 250.381C1565.59 250.614 1565.12 251.08 1565.12 251.779V252.479C1565.59 252.479 1566.29 252.712 1567.22 253.178C1562.56 263.2 1553.7 271.124 1540.65 276.951C1532.49 279.049 1525.27 280.564 1518.97 281.496L1513.73 280.797C1513.26 280.797 1513.03 281.03 1513.03 281.496L1509.54 280.797H1502.89C1490.31 279.165 1479.59 274.97 1470.73 268.211C1461.41 260.986 1454.76 247.584 1450.8 228.006C1450.8 227.54 1451.03 227.307 1451.5 227.307L1450.1 209.477C1450.57 205.98 1450.8 201.552 1450.8 196.191C1450.8 192.462 1450.57 189.083 1450.1 186.053C1450.57 183.023 1450.8 179.061 1450.8 174.166C1450.8 171.602 1450.57 168.572 1450.1 165.076C1450.57 161.813 1451.03 159.599 1451.5 158.434C1451.03 148.645 1450.57 143.75 1450.1 143.75L1450.8 136.059V104.943C1450.8 103.079 1451.03 101.098 1451.5 99C1451.03 97.1354 1450.8 95.2708 1450.8 93.4062V85.7148C1450.8 83.151 1451.03 80.9368 1451.5 79.0723C1451.03 76.5085 1450.8 74.0612 1450.8 71.7305V58.4453C1453.13 43.0625 1457.09 31.6419 1462.69 24.1836C1474.11 10.4323 1484.71 3.55664 1494.5 3.55664L1498.35 4.25586C1498.35 2.39128 1499.86 1.45898 1502.89 1.45898ZM1494.5 79.7715C1494.5 81.403 1494.74 82.6849 1495.2 83.6172L1494.5 88.1621V103.545C1494.5 104.011 1494.74 104.244 1495.2 104.244L1494.5 105.992V141.303C1494.5 143.633 1494.27 146.197 1493.8 148.994C1494.27 150.626 1494.5 152.84 1494.5 155.637V162.979C1494.5 166.708 1494.27 170.087 1493.8 173.117C1494.27 175.681 1494.5 178.944 1494.5 182.906C1494.5 186.868 1494.27 190.132 1493.8 192.695C1494.27 195.958 1494.5 199.105 1494.5 202.135C1494.5 205.864 1494.27 211.574 1493.8 219.266C1493.8 231.385 1498.7 238.494 1508.49 240.592H1513.03C1525.85 240.592 1532.26 233.949 1532.26 220.664C1532.73 206.214 1532.96 197.823 1532.96 195.492L1532.26 188.15C1532.73 184.654 1532.96 180.226 1532.96 174.865V172.418C1532.96 170.553 1532.73 168.572 1532.26 166.475C1532.73 164.61 1532.96 162.629 1532.96 160.531C1532.96 155.171 1532.73 150.276 1532.26 145.848C1532.73 141.186 1532.96 136.059 1532.96 130.465C1532.96 129.066 1532.73 127.085 1532.26 124.521C1532.96 114.033 1534.01 108.789 1535.41 108.789C1534.24 108.789 1532.96 106.575 1531.56 102.146L1532.26 94.8047V88.1621C1532.26 85.3652 1532.03 83.6172 1531.56 82.918C1532.03 80.1211 1532.26 77.9069 1532.26 76.2754V73.8281C1532.26 53.5508 1528.88 43.4121 1522.12 43.4121L1519.67 42.0137H1507.79C1498.93 42.0137 1494.5 51.2201 1494.5 69.6328V79.7715ZM1619.33 4.25586C1632.61 4.25586 1639.25 6.47005 1639.25 10.8984C1650.21 52.6185 1662.79 98.6504 1677.01 148.994C1680.28 163.678 1682.72 171.02 1684.35 171.02H1686.1L1687.5 170.32L1686.8 163.678L1688.9 10.1992C1690.53 6.70312 1692.51 4.95508 1694.84 4.95508C1709.99 5.42122 1719.66 5.6543 1723.86 5.6543C1725.26 5.6543 1726.77 7.16927 1728.4 10.1992C1727.71 19.2891 1727.36 26.9805 1727.36 33.2734V40.6152C1727.36 42.4798 1727.71 44.694 1728.4 47.2578C1727.71 48.1901 1727.36 49.0059 1727.36 49.7051C1727.36 51.8027 1727.71 53.2012 1728.4 53.9004C1727.71 62.291 1727.36 68.7005 1727.36 73.1289C1727.36 83.6172 1727.71 91.0755 1728.4 95.5039L1726.66 162.279C1726.66 163.678 1726.89 168.339 1727.36 176.264C1726.42 214.488 1725.96 245.603 1725.96 269.609C1725.96 277.068 1723.74 280.797 1719.31 280.797H1711.27C1704.05 280.797 1694.38 280.564 1682.26 280.098C1678.76 280.098 1674.56 268.677 1669.67 245.836C1666.64 236.746 1654.29 192.812 1632.61 114.033H1629.81C1628.65 114.266 1628.07 114.732 1628.07 115.432V128.018C1628.07 128.484 1627.83 128.717 1627.37 128.717L1628.77 133.262C1628.3 146.081 1628.07 156.219 1628.07 163.678V170.32C1628.07 172.418 1627.83 175.098 1627.37 178.361C1627.83 179.061 1628.07 181.042 1628.07 184.305C1628.07 186.402 1627.83 187.451 1627.37 187.451L1628.07 192.695V219.266C1628.07 222.995 1628.3 225.675 1628.77 227.307C1628.3 230.57 1628.07 233.833 1628.07 237.096V268.211C1628.07 276.135 1625.39 280.098 1620.03 280.098C1606.51 279.632 1597.88 279.398 1594.15 279.398C1590.66 279.398 1588.91 277.65 1588.91 274.154V267.512C1589.14 259.121 1589.61 254.926 1590.31 254.926C1589.38 252.362 1588.91 247.934 1588.91 241.641V221.363L1591.01 218.566C1590.08 216.935 1589.61 215.42 1589.61 214.021V190.248C1589.61 185.12 1589.38 181.508 1588.91 179.41C1589.38 175.448 1589.61 171.253 1589.61 166.824V140.604C1589.61 136.641 1589.84 133.495 1590.31 131.164C1589.84 128.134 1589.61 124.638 1589.61 120.676V94.8047L1590.31 87.4629C1589.84 87.4629 1589.61 87.2298 1589.61 86.7637C1590.78 85.5983 1592.06 85.0156 1593.46 85.0156V84.3164C1590.89 81.7526 1589.61 78.373 1589.61 74.1777C1590.08 46.6751 1590.31 25.349 1590.31 10.1992C1590.31 6.70312 1592.06 4.95508 1595.55 4.95508H1596.95C1605.11 4.95508 1612.57 4.72201 1619.33 4.25586Z" fill="#E69AA4"/>
</svg>
