<svg width="1727" height="284" viewBox="0 0 1727 284" fill="none" xmlns="http://www.w3.org/2000/svg">
<path d="M58.4746 1.75977L63.7188 2.45898H70.3613C94.1348 2.45898 111.266 13.5299 121.754 35.6719C123.618 40.5664 125.6 48.2578 127.697 58.7461L126.998 62.2422C127.464 67.8359 127.697 72.6139 127.697 76.5762C126.066 79.8392 124.085 81.4707 121.754 81.4707C119.656 81.4707 118.607 81.2376 118.607 80.7715L109.867 81.4707H91.3379C85.7441 81.4707 82.9473 79.0234 82.9473 74.1289L83.9961 72.7305V62.9414C83.9961 49.6562 78.2858 43.0137 66.8652 43.0137H64.418C51.599 43.0137 45.1895 49.1901 45.1895 61.543C45.1895 76.9258 61.7376 106.41 94.834 149.994C115.111 182.158 125.25 208.029 125.25 227.607V228.307C123.618 241.592 119.423 252.546 112.664 261.17C101.01 275.387 84.6953 282.496 63.7188 282.496C30.1562 282.496 9.64583 267.463 2.1875 237.396C1.25521 229.239 0.55599 224.461 0.0898438 223.062C0.55599 218.867 1.48828 215.488 2.88672 212.924C1.48828 210.36 0.789062 208.379 0.789062 206.98V205.582C0.789062 201.62 4.05208 199.639 10.5781 199.639C11.2773 199.639 14.1908 199.872 19.3184 200.338C27.9421 199.872 33.4193 199.639 35.75 199.639C39.7122 199.639 42.3926 201.27 43.791 204.533C43.791 205.232 43.5579 206.048 43.0918 206.98C43.0918 225.16 45.5391 235.532 50.4336 238.096C51.832 239.261 55.0951 240.426 60.2227 241.592H65.4668C75.0228 241.592 80.6165 235.415 82.248 223.062C82.248 209.544 68.4967 183.44 40.9941 144.75C40.9941 143.585 38.4303 140.322 33.3027 134.961C12.5592 103.729 2.1875 77.8581 2.1875 57.3477V56.2988C2.1875 33.9238 15.3561 16.6764 41.6934 4.55664C44.9564 4.55664 50.5501 3.62435 58.4746 1.75977ZM231.196 5.60547L235.041 6.30469H257.416C261.379 6.77083 263.36 8.75195 263.36 12.248C263.36 14.8118 263.127 16.0938 262.66 16.0938C263.127 20.9883 263.36 24.7174 263.36 27.2812V43.7129C263.36 48.8405 263.593 52.5697 264.059 54.9004C263.593 58.6296 263.36 62.8249 263.36 67.4863V83.2188C263.36 89.5117 263.593 94.4062 264.059 97.9023C263.593 101.398 263.36 106.41 263.36 112.936V124.123C263.36 129.95 263.593 135.893 264.059 141.953L263.36 145.799C263.826 153.257 264.059 160.249 264.059 166.775V183.207C264.059 184.139 264.292 185.072 264.758 186.004C264.292 186.936 264.059 187.985 264.059 189.15V218.867C264.059 219.333 264.292 219.566 264.758 219.566C264.292 220.499 264.059 221.314 264.059 222.014C264.059 224.111 264.292 225.51 264.758 226.209C264.292 230.637 264.059 234.133 264.059 236.697C264.059 243.923 264.292 255.343 264.758 270.959C264.758 277.019 261.262 280.049 254.27 280.049H225.951C221.523 280.049 219.309 274.105 219.309 262.219C219.775 259.422 220.008 257.208 220.008 255.576V234.6C220.008 231.803 220.241 228.307 220.707 224.111C220.241 223.179 220.008 222.48 220.008 222.014C220.008 220.149 220.241 217.818 220.707 215.021C220.241 203.834 220.008 193.462 220.008 183.906V178.662L220.707 174.117C220.241 173.185 220.008 171.903 220.008 170.271L220.707 166.076C220.241 163.279 220.008 160.715 220.008 158.385V157.686L216.512 156.986H183.649C183.649 157.919 183.416 158.385 182.95 158.385L183.649 167.475V179.361C183.649 180.993 183.416 182.275 182.95 183.207L183.649 187.402V209.078C183.649 216.303 183.882 221.548 184.348 224.811C183.882 229.239 183.649 234.716 183.649 241.242V265.016C183.649 275.038 181.435 280.049 177.006 280.049H149.387C143.793 280.049 140.996 277.835 140.996 273.406C140.996 267.113 141.229 259.888 141.696 251.73C141.696 248.467 141.463 241.941 140.996 232.152C141.463 215.138 141.696 203.484 141.696 197.191C141.229 184.605 140.996 177.147 140.996 174.816C140.996 174.35 141.229 173.651 141.696 172.719C141.229 168.523 140.996 165.027 140.996 162.23V149.645C140.996 143.818 140.763 138.574 140.297 133.912L140.996 127.27C140.53 106.526 140.064 94.5228 139.598 91.2598C140.064 87.7637 140.297 85.7826 140.297 85.3164C139.831 62.9414 139.365 50.472 138.899 47.9082C139.365 44.8783 139.598 41.4987 139.598 37.7695C139.598 33.3411 139.365 24.834 138.899 12.248C138.899 9.91732 140.647 7.9362 144.143 6.30469C145.541 6.30469 147.289 6.53776 149.387 7.00391C158.011 6.53776 165.469 6.30469 171.762 6.30469H174.559C178.288 6.30469 181.085 7.81966 182.95 10.8496C182.95 11.0827 182.6 14.3457 181.901 20.6387C182.6 41.8483 182.95 53.735 182.95 56.2988L181.901 57.6973L182.95 62.2422V72.0312C182.95 73.1966 183.183 74.1289 183.649 74.8281C183.649 75.2943 183.416 75.5273 182.95 75.5273L183.649 84.6172V97.2031C183.649 98.8346 183.416 100.117 182.95 101.049L183.649 105.594V116.082C190.408 116.548 195.302 116.781 198.332 116.781H211.268L220.008 116.082V103.146C220.008 94.9889 220.241 88.5794 220.707 83.918C219.775 71.099 219.309 50.472 219.309 22.0371V21.3379C219.309 19.2402 219.076 16.4434 218.61 12.9473C218.61 8.05273 222.805 5.60547 231.196 5.60547ZM299.034 5.95508C300.665 6.88737 301.947 7.35352 302.88 7.35352L314.766 6.6543L316.165 7.35352C317.097 6.88737 318.029 6.6543 318.962 6.6543C321.991 6.6543 323.74 9.33464 324.206 14.6953C323.74 16.0938 323.273 16.793 322.807 16.793L323.506 24.4844C323.506 39.168 323.273 58.8626 322.807 83.5684C323.273 92.1921 323.506 97.4362 323.506 99.3008C323.04 105.128 322.807 109.323 322.807 111.887C323.273 125.172 323.506 133.329 323.506 136.359C323.506 139.156 323.273 145.1 322.807 154.189C323.273 162.58 323.506 170.738 323.506 178.662C323.506 184.023 323.273 188.917 322.807 193.346C323.273 198.939 323.506 206.048 323.506 214.672C323.506 223.995 323.273 231.453 322.807 237.047C323.273 243.107 323.506 251.497 323.506 262.219V269.561C323.506 276.553 320.593 280.049 314.766 280.049H287.846C282.486 280.049 279.805 277.368 279.805 272.008V268.162C279.805 263.268 280.038 260.82 280.505 260.82C280.038 256.625 279.805 253.129 279.805 250.332V248.234C279.805 232.385 280.038 218.751 280.505 207.33C280.038 199.872 279.805 192.996 279.805 186.703C279.805 183.673 280.038 177.73 280.505 168.873C280.038 162.347 279.805 152.441 279.805 139.156C279.805 137.525 279.572 136.359 279.106 135.66L279.805 131.115V111.188C279.805 109.323 279.572 107.109 279.106 104.545C279.572 103.613 279.805 102.098 279.805 100C279.805 97.6693 279.572 96.1543 279.106 95.4551C279.572 91.2598 279.805 87.7637 279.805 84.9668V56.2988C279.805 54.2012 279.572 52.2201 279.106 50.3555C279.572 48.4909 279.805 46.5098 279.805 44.4121V31.8262C279.805 30.8939 281.786 30.0781 285.749 29.3789L286.448 25.8828L285.049 25.1836L280.505 25.8828L279.805 24.4844V13.2969C280.505 8.86849 282.719 6.6543 286.448 6.6543H294.839L299.034 5.95508ZM367.921 6.6543L379.458 7.35352C381.789 7.35352 389.48 7.12044 402.532 6.6543C424.441 6.6543 440.756 14.8118 451.478 31.127C457.537 42.3145 460.567 54.6673 460.567 68.1855V88.8125C458.47 103.496 455.207 114.334 450.778 121.326C447.748 125.288 443.786 129.717 438.892 134.611C450.778 144.4 456.722 151.626 456.722 156.287C461.616 165.144 464.063 185.188 464.063 216.42C463.131 224.344 461.616 229.006 459.519 230.404L461.966 231.803C459.402 244.855 454.974 254.993 448.681 262.219C436.095 274.105 422.227 280.049 407.077 280.049C399.153 279.583 394.491 279.35 393.093 279.35C375.845 279.816 364.891 280.049 360.229 280.049L358.831 280.748C357.899 280.282 356.966 280.049 356.034 280.049H346.245C342.283 280.049 340.302 277.602 340.302 272.707V256.275C340.302 255.809 340.069 255.576 339.603 255.576C340.069 254.644 340.302 253.945 340.302 253.479C340.302 251.381 340.069 250.332 339.603 250.332L340.302 241.592V219.217C340.302 213.856 340.069 210.127 339.603 208.029C340.069 204.3 340.302 200.105 340.302 195.443V177.613C340.302 168.757 340.535 161.648 341.001 156.287C340.535 152.325 340.302 146.382 340.302 138.457C340.302 129.367 340.535 119.695 341.001 109.439C341.001 108.041 340.768 103.146 340.302 94.7559L341.7 18.541L341.001 13.9961C341.001 9.56771 344.497 7.35352 351.489 7.35352C358.015 7.35352 363.492 7.12044 367.921 6.6543ZM384.003 48.6074V70.9824C384.003 77.2754 384.236 82.1699 384.702 85.666C384.236 89.1621 384.003 94.1732 384.003 100.699V117.83H397.987C410.34 115.965 416.517 108.973 416.517 96.8535V94.0566C416.517 86.5983 416.866 77.9746 417.565 68.1855C415.468 54.2012 409.991 47.209 401.134 47.209H385.401C384.469 47.4421 384.003 47.9082 384.003 48.6074ZM383.304 159.084V174.816C383.304 178.079 383.071 180.993 382.604 183.557L384.003 213.273C383.537 216.77 383.304 221.664 383.304 227.957V234.949L384.003 239.844C404.746 239.844 415.118 237.63 415.118 233.201C418.614 233.201 420.595 219.683 421.061 192.646C421.061 170.738 416.866 159.783 408.476 159.783C408.476 159.317 405.329 158.618 399.036 157.686H384.702C383.77 157.919 383.304 158.385 383.304 159.084ZM507.079 5.95508C511.974 5.95508 514.421 9.45117 514.421 16.4434C514.421 21.804 514.654 24.4844 515.12 24.4844L514.421 29.7285C514.421 38.5853 514.654 48.724 515.12 60.1445C515.12 62.0091 514.887 68.1855 514.421 78.6738C514.887 89.3952 515.12 96.8535 515.12 101.049C515.12 104.545 514.887 111.188 514.421 120.977C514.887 130.066 515.12 138.224 515.12 145.449C515.12 149.411 514.887 154.073 514.421 159.434C514.887 165.027 515.12 172.253 515.12 181.109C515.12 190.898 514.654 199.056 513.722 205.582C514.188 208.146 514.421 210.593 514.421 212.924V219.566L513.722 224.111C516.752 235.765 522.113 241.592 529.804 241.592H537.495C548.217 241.592 553.577 234.017 553.577 218.867C553.577 207.447 553.344 198.473 552.878 191.947C553.344 184.489 553.577 179.361 553.577 176.564C553.111 161.648 552.878 153.024 552.878 150.693C552.878 147.896 553.111 143.118 553.577 136.359C553.111 127.036 552.878 120.627 552.878 117.131C552.878 112.236 553.111 102.098 553.577 86.7148C553.577 83.918 553.344 78.7904 552.878 71.332C553.344 58.2799 553.577 43.946 553.577 28.3301V18.541C553.577 18.0749 553.81 17.8418 554.277 17.8418L553.577 16.4434V12.5977C554.51 8.16927 556.724 5.95508 560.22 5.95508L564.066 6.6543H589.238C594.132 6.6543 596.579 8.63542 596.579 12.5977V25.8828C596.579 26.582 596.346 26.9316 595.88 26.9316L596.579 28.3301V66.7871C596.579 67.9525 596.812 69.0013 597.279 69.9336L596.579 71.332C596.579 76.6927 596.812 84.8503 597.279 95.8047C596.812 115.383 596.579 127.503 596.579 132.164C596.579 136.359 596.812 141.254 597.279 146.848C596.812 155.238 596.579 164.678 596.579 175.166V190.549C596.579 192.646 596.812 194.628 597.279 196.492C596.812 198.357 596.579 200.338 596.579 202.436V221.664C596.579 248.701 583.993 268.046 558.822 279.699C550.664 281.564 540.991 282.496 529.804 282.496H529.105C501.835 282.496 483.539 268.162 474.216 239.494C473.517 231.57 472.818 227.607 472.118 227.607C472.118 227.141 472.352 226.908 472.818 226.908C472.352 214.322 472.118 205.232 472.118 199.639V189.85L471.419 185.305C472.118 177.846 472.585 173.185 472.818 171.32C471.885 164.561 471.419 158.618 471.419 153.49C471.419 147.663 471.652 141.72 472.118 135.66C471.652 126.104 471.419 117.714 471.419 110.488C471.419 104.895 471.652 99.7669 472.118 95.1055C471.652 89.5117 471.419 82.2865 471.419 73.4297V68.8848C471.419 61.8926 471.652 56.765 472.118 53.502C471.652 49.3066 471.419 43.8294 471.419 37.0703V22.3867C471.419 11.8984 472.701 6.6543 475.265 6.6543H477.363C484.588 6.6543 494.493 6.42122 507.079 5.95508ZM611.627 5.60547H627.009C638.896 5.60547 644.839 8.05273 644.839 12.9473C648.336 26.9316 653.463 55.1335 660.222 97.5527C660.922 97.5527 662.436 104.895 664.767 119.578L666.166 120.277H669.312L688.541 19.5898C689.473 10.7331 692.153 6.30469 696.582 6.30469C699.145 5.83854 701.709 5.60547 704.273 5.60547C708.002 5.60547 717.092 5.83854 731.543 6.30469C732.242 6.30469 733.174 7.23698 734.339 9.10156C713.596 86.9479 700.311 139.622 694.484 167.125C692.619 171.087 690.638 179.711 688.541 192.996L689.24 204.883L687.841 207.68C688.308 222.13 688.541 231.337 688.541 235.299C688.541 240.893 688.308 248.001 687.841 256.625C688.308 261.053 688.541 266.764 688.541 273.756C688.541 277.252 681.082 279 666.166 279C662.67 278.534 657.775 278.301 651.482 278.301C647.52 278.301 645.539 275.854 645.539 270.959V246.486C645.539 242.524 645.772 237.28 646.238 230.754C645.772 229.822 645.539 229.122 645.539 228.656C645.539 228.19 645.772 227.957 646.238 227.957L644.839 196.842C645.306 193.346 645.539 190.549 645.539 188.451C625.261 107.342 610.694 47.5586 601.838 9.10156C601.838 6.77083 605.101 5.60547 611.627 5.60547ZM765.818 6.30469C772.111 6.30469 779.803 6.53776 788.893 7.00391C792.156 6.53776 795.419 6.30469 798.682 6.30469L802.178 7.00391C804.042 6.53776 806.023 6.30469 808.121 6.30469C814.181 6.30469 817.211 10.7331 817.211 19.5898C819.075 29.3789 826.65 78.5573 839.935 167.125C840.635 167.125 841.217 168.29 841.684 170.621L840.984 172.369C842.383 180.76 843.082 185.887 843.082 187.752L842.383 191.598C843.548 191.598 845.296 198.939 847.627 213.623C846.928 214.788 846.578 215.604 846.578 216.07C851.24 239.145 854.503 258.839 856.367 275.154C856.134 277.718 854.619 279 851.822 279H819.309C814.414 279 811.967 272.59 811.967 259.771C808.004 227.141 805.324 210.826 803.926 210.826H802.877C797.982 210.826 786.911 211.059 769.664 211.525L765.818 210.826C763.488 218.051 761.273 234.133 759.176 259.072C758.243 272.357 755.33 279 750.435 279H734.703C720.952 279 714.076 277.718 714.076 275.154V273.756C719.437 234.133 731.09 159.55 749.037 50.0059C752.999 24.3678 755.913 10.0339 757.777 7.00391C761.273 6.53776 763.954 6.30469 765.818 6.30469ZM770.363 169.922L771.762 170.621H775.607C777.006 170.621 777.705 170.388 777.705 169.922L781.551 170.621H799.381C799.381 162.464 797.4 145.216 793.437 118.879C793.904 117.947 794.137 117.247 794.137 116.781L788.893 79.0234L789.592 77.2754C789.126 72.847 788.193 70.6328 786.795 70.6328H785.396C782.6 70.6328 779.57 89.9779 776.307 128.668C775.374 128.668 773.626 141.72 771.062 167.824C770.596 167.824 770.363 168.523 770.363 169.922ZM980.157 0.361328C1009.99 0.361328 1029.34 10.7331 1038.19 31.4766C1039.59 31.4766 1041.57 39.5176 1044.14 55.5996C1043.67 58.3965 1043.44 60.3776 1043.44 61.543H1044.14L1043.44 62.9414C1043.9 67.3698 1044.14 70.6328 1044.14 72.7305C1044.14 76.2266 1041.69 78.3242 1036.79 79.0234C1034 79.0234 1026.89 78.6738 1015.47 77.9746L1006.38 79.0234C1004.51 79.0234 1002.53 77.5085 1000.43 74.4785V63.6406C1000.43 53.3854 998.919 46.6263 995.889 43.3633C990.995 41.9648 985.517 40.916 979.458 40.2168C969.902 40.2168 963.842 46.8594 961.278 60.1445V67.4863C961.278 68.6517 961.511 69.7005 961.977 70.6328C961.278 70.6328 960.462 83.4518 959.53 109.09C960.229 113.518 960.579 116.315 960.579 117.48L959.53 127.969C959.53 129.134 959.879 132.863 960.579 139.156C960.579 139.622 960.229 143.002 959.53 149.295C960.229 155.355 960.579 158.618 960.579 159.084C959.879 165.61 959.53 170.854 959.53 174.816C960.229 181.109 960.579 184.372 960.579 184.605C959.879 190.199 959.064 193.695 958.131 195.094C958.598 199.056 959.064 201.62 959.53 202.785C959.064 208.379 958.831 213.157 958.831 217.119V223.062C958.831 234.017 963.142 240.31 971.766 241.941L974.913 242.641C985.168 242.641 991.461 240.426 993.792 235.998C996.122 230.171 997.288 225.859 997.288 223.062V207.33C997.288 203.834 999.152 201.27 1002.88 199.639L1010.22 200.338H1026.31C1026.77 200.338 1027 200.105 1027 199.639L1028.4 200.338H1036.09C1039.12 200.338 1041.11 202.202 1042.04 205.932C1042.04 244.622 1029.92 268.745 1005.68 278.301C1003.35 279.699 994.84 281.447 980.157 283.545L975.612 282.846L973.864 283.545C964.541 283.545 952.305 279.233 937.155 270.609C925.035 259.422 918.975 249.866 918.975 241.941C918.043 241.941 916.761 236.231 915.129 224.811C915.596 222.713 916.062 221.664 916.528 221.664C916.528 221.198 916.295 219.683 915.829 217.119C916.295 201.503 916.528 191.481 916.528 187.053C916.528 186.587 916.295 185.072 915.829 182.508C916.295 179.478 916.761 177.963 917.227 177.963C916.761 173.535 916.528 170.271 916.528 168.174C916.528 143.002 917.111 124.822 918.276 113.635C917.577 111.071 917.227 107.808 917.227 103.846C917.227 99.1842 917.577 94.8724 918.276 90.9102C917.577 86.7148 917.227 83.4518 917.227 81.1211C917.926 71.5651 918.276 65.2721 918.276 62.2422H918.975L918.276 60.8438C920.141 45.2279 922.821 34.39 926.317 28.3301C932.61 16.9095 943.681 8.63542 959.53 3.50781C963.026 2.34245 969.902 1.29362 980.157 0.361328ZM1091 6.6543C1098.46 7.12044 1104.05 7.35352 1107.78 7.35352H1126.66C1139.24 7.35352 1145.54 9.45117 1145.54 13.6465C1147.87 32.2923 1149.85 44.0625 1151.48 48.957L1150.78 50.3555C1153.34 61.776 1157.31 88.696 1162.67 131.115C1164.3 135.544 1167.56 154.423 1172.46 187.752L1171.76 192.297C1173.39 192.297 1175.37 202.436 1177.7 222.713C1178.4 222.713 1178.75 222.946 1178.75 223.412C1178.75 223.878 1178.4 224.111 1177.7 224.111C1178.4 234.367 1179.22 241.126 1180.15 244.389C1179.68 247.186 1179.45 249.283 1179.45 250.682C1182.01 266.298 1183.29 274.805 1183.29 276.203C1182.13 278.767 1180.61 280.049 1178.75 280.049L1169.66 279.35C1166.86 279.35 1162.08 279.583 1155.33 280.049C1152.53 279.583 1149.73 279.35 1146.93 279.35V280.049C1143.44 280.049 1141.11 277.485 1139.94 272.357C1140.64 271.658 1140.99 270.726 1140.99 269.561C1140.99 267.929 1140.41 265.831 1139.24 263.268C1139.71 262.335 1139.94 261.636 1139.94 261.17C1138.54 250.449 1137.61 244.622 1137.15 243.689L1137.84 240.893C1136.21 227.141 1135.16 220.266 1134.7 220.266L1135.75 218.867V216.77C1135.75 213.74 1133.65 212.225 1129.45 212.225H1117.57C1115 212.225 1112.44 211.875 1109.88 211.176C1108.01 211.875 1105.8 212.225 1103.23 212.225H1095.54C1093.21 215.721 1090.65 218.401 1087.85 220.266L1086.45 219.566H1085.05V222.713C1085.05 223.645 1085.52 224.111 1086.45 224.111H1087.85L1088.9 221.314H1091.7C1090.3 225.743 1089.6 228.19 1089.6 228.656C1090.53 230.288 1091 231.803 1091 233.201V234.6C1088.2 263.967 1084.94 278.65 1081.21 278.65C1078.41 279.117 1076.43 279.35 1075.26 279.35C1072 279.35 1067.69 279.117 1062.33 278.65C1057.9 279.117 1052.07 279.35 1044.85 279.35L1043.45 276.902C1047.88 245.904 1051.61 217.702 1054.64 192.297C1057.67 169.922 1063.03 138.807 1070.72 98.9512H1070.02C1074.91 79.6061 1079.93 50.5885 1085.05 11.8984C1086.92 8.40234 1088.9 6.6543 1091 6.6543ZM1113.02 72.3809C1111.16 76.5762 1108.83 91.1432 1106.03 116.082C1103.47 132.63 1101.25 151.276 1099.39 172.02C1100.79 172.486 1101.49 172.952 1101.49 173.418C1103.12 172.486 1104.4 172.02 1105.33 172.02H1128.75C1127.36 155.005 1123.86 127.852 1118.27 90.5605L1118.97 89.1621C1118.03 77.9746 1116.52 72.3809 1114.42 72.3809H1113.02ZM1253.58 5.60547C1268.5 5.60547 1282.6 10.3835 1295.88 19.9395C1307.77 30.8939 1313.71 48.0247 1313.71 71.332L1313.01 76.5762C1313.95 78.4408 1314.41 81.2376 1314.41 84.9668V90.9102C1314.41 130.299 1301.36 154.889 1275.26 164.678L1261.27 167.475C1260.57 167.475 1260.22 167.242 1260.22 166.775C1255.33 167.242 1251.6 167.475 1249.03 167.475H1235.4C1234.47 167.708 1234 168.29 1234 169.223V177.264C1234 181.925 1233.77 186.237 1233.3 190.199C1233.77 192.996 1234 195.793 1234 198.59C1234 199.755 1233.77 201.736 1233.3 204.533L1234 209.777C1234 210.943 1233.77 212.924 1233.3 215.721L1234 223.412L1233.3 230.055L1234 233.201C1233.54 235.765 1233.3 237.28 1233.3 237.746C1233.3 239.145 1233.54 239.844 1234 239.844L1233.3 248.934V271.309C1233.3 276.436 1231.32 279 1227.36 279C1215.24 278.534 1205.68 278.301 1198.69 278.301C1193.1 278.301 1190.3 275.038 1190.3 268.512V221.664L1191 216.42H1190.3C1190.3 215.954 1190.53 215.721 1191 215.721L1190.3 206.631V190.199C1190.3 189.733 1190.77 187.752 1191.7 184.256V181.809H1190.3C1190.77 175.049 1191 170.038 1191 166.775V151.742C1191 150.577 1190.77 149.645 1190.3 148.945L1191 147.197C1190.53 129.484 1190.3 115.499 1190.3 105.244V88.4629C1190.3 87.0645 1190.77 85.5495 1191.7 83.918C1190.3 80.6549 1189.6 77.9746 1189.6 75.877V56.998C1189.6 56.5319 1190.07 54.5508 1191 51.0547L1189.6 45.8105V41.9648C1189.6 39.401 1189.83 35.5553 1190.3 30.4277H1189.6L1190.3 29.0293V14.6953C1190.3 9.33464 1193.1 6.6543 1198.69 6.6543H1246.94C1248.57 6.6543 1250.78 6.30469 1253.58 5.60547ZM1233.3 47.9082V56.998C1233.3 60.4941 1233.07 63.5241 1232.6 66.0879C1233.07 68.6517 1233.3 71.6816 1233.3 75.1777L1232.6 80.4219L1234 83.2188C1233.54 97.2031 1233.3 108.74 1233.3 117.83V123.074C1233.54 126.104 1234.23 127.619 1235.4 127.619H1241.69C1260.11 127.619 1269.31 121.676 1269.31 109.789C1269.78 107.225 1270.01 103.962 1270.01 100V68.1855C1270.01 53.735 1262.55 46.5098 1247.64 46.5098H1234.7C1233.77 46.5098 1233.3 46.9759 1233.3 47.9082ZM1330.51 6.6543H1340.3C1342.39 6.6543 1344.38 7.12044 1346.24 8.05273L1350.78 7.35352H1351.48V9.45117H1352.18L1354.63 8.05273H1356.03C1357.19 8.05273 1358.48 10.0339 1359.87 13.9961C1360.81 13.5299 1361.51 13.2969 1361.97 13.2969V11.1992L1361.27 7.35352C1364.07 7.35352 1365.82 8.86849 1366.52 11.8984C1365.58 13.9961 1365.12 15.5111 1365.12 16.4434C1365.58 22.2702 1366.05 25.5332 1366.52 26.2324C1366.05 30.4277 1365.82 33.9238 1365.82 36.7207V58.7461L1365.12 63.9902L1363.72 63.291C1363.02 63.291 1362.21 63.9902 1361.27 65.3887V68.5352H1363.72L1364.42 64.6895C1365.35 64.9225 1365.82 65.3887 1365.82 66.0879V73.0801C1365.82 81.7038 1366.05 91.2598 1366.52 101.748C1366.05 104.778 1365.82 108.507 1365.82 112.936H1363.72C1363.72 111.537 1363.14 110.838 1361.97 110.838L1360.57 114.334C1364.07 116.199 1365.82 117.48 1365.82 118.18V165.027C1365.82 166.193 1365.58 167.242 1365.12 168.174C1366.05 170.271 1366.52 174.234 1366.52 180.061V194.395C1366.52 197.191 1366.28 199.522 1365.82 201.387C1366.28 203.951 1366.52 206.398 1366.52 208.729V234.6C1366.52 236.697 1366.28 239.378 1365.82 242.641C1365.82 243.34 1366.05 243.689 1366.52 243.689L1365.82 247.186V273.057C1365.82 276.553 1364.07 278.301 1360.57 278.301H1336.45L1331.91 279C1325.38 277.602 1322.12 275.387 1322.12 272.357V223.062C1323.05 221.897 1323.52 220.965 1323.52 220.266C1322.58 218.634 1322.12 217.119 1322.12 215.721V212.574C1322.35 201.62 1322.82 196.143 1323.52 196.143L1322.82 187.053V107.691C1322.82 107.225 1323.28 105.244 1324.21 101.748C1322.82 101.282 1322.12 99.7669 1322.12 97.2031V92.6582C1322.12 89.1621 1322.35 86.1322 1322.82 83.5684C1322.35 81.0046 1322.12 77.9746 1322.12 74.4785C1322.35 66.321 1322.82 62.2422 1323.52 62.2422L1322.82 54.9004V23.0859L1323.52 13.9961H1322.82C1322.82 9.10156 1325.38 6.6543 1330.51 6.6543ZM1448.69 4.55664C1478.29 5.02279 1493.09 6.53776 1493.09 9.10156C1494.02 13.0638 1494.49 17.7253 1494.49 23.0859V36.7207C1492.39 38.8184 1491.34 40.1003 1491.34 40.5664L1493.09 42.6641C1491.46 43.5964 1489.94 44.0625 1488.54 44.0625H1478.76C1477.59 44.0625 1476.77 43.1302 1476.31 41.2656L1473.51 44.0625C1466.75 44.5286 1461.74 44.7617 1458.48 44.7617H1454.63V50.0059C1454.63 52.8027 1454.4 55.1335 1453.93 56.998C1454.4 59.5618 1454.63 62.0091 1454.63 64.3398V65.0391C1454.63 67.6029 1454.4 69.8171 1453.93 71.6816C1454.4 74.4785 1454.63 76.8092 1454.63 78.6738C1454.63 82.8691 1454.4 87.2975 1453.93 91.959C1454.4 96.3874 1454.63 101.865 1454.63 108.391H1453.93L1454.63 109.789L1453.93 113.635L1454.63 116.781C1454.17 118.646 1453.93 120.394 1453.93 122.025C1453.93 122.958 1454.17 123.424 1454.63 123.424C1454.17 125.988 1453.7 130.999 1453.23 138.457C1454.4 140.322 1455.22 144.051 1455.68 149.645L1454.63 152.441C1455.33 154.073 1455.91 154.889 1456.38 154.889C1455.91 159.783 1455.68 163.512 1455.68 166.076V172.719C1455.68 182.275 1455.91 196.492 1456.38 215.371C1455.68 215.371 1454.87 216.07 1453.93 217.469V218.518C1455.56 220.149 1456.38 221.314 1456.38 222.014C1456.38 224.344 1456.15 225.859 1455.68 226.559C1456.61 239.378 1457.08 255.11 1457.08 273.756C1457.08 274.921 1455.8 276.902 1453.23 279.699C1449.27 278.767 1444.61 278.301 1439.25 278.301H1421.77C1417.34 278.301 1415.13 276.32 1415.13 272.357C1414.66 239.494 1413.96 220.499 1413.03 215.371C1413.5 215.371 1413.73 215.138 1413.73 214.672C1414.89 214.672 1416.41 214.905 1418.27 215.371C1418.04 210.943 1417.46 208.729 1416.53 208.729V205.582L1418.27 201.037L1413.73 198.24L1413.03 193.695V187.053C1413.03 184.955 1413.26 182.158 1413.73 178.662C1413.26 176.331 1412.8 175.166 1412.33 175.166C1412.33 174.467 1412.56 174.117 1413.03 174.117C1412.56 169.223 1412.33 165.493 1412.33 162.93V143.701C1412.33 141.604 1412.56 138.807 1413.03 135.311C1412.56 134.378 1412.33 133.446 1412.33 132.514C1412.33 131.814 1413.5 130.533 1415.83 128.668C1415.83 127.736 1415.13 127.27 1413.73 127.27V124.822C1416.06 124.822 1417.22 125.288 1417.22 126.221L1418.97 125.521L1421.07 127.27C1422 127.27 1422.47 126.687 1422.47 125.521L1421.77 124.123L1420.37 124.822H1418.97C1418.97 123.191 1416.99 120.977 1413.03 118.18C1413.03 116.781 1412.8 116.082 1412.33 116.082C1412.8 110.022 1413.03 105.71 1413.03 103.146V82.1699C1413.03 79.373 1413.96 76.9258 1415.83 74.8281C1413.96 73.4297 1412.8 70.6328 1412.33 66.4375L1413.03 65.0391V46.5098H1390.3C1386.81 46.5098 1384.13 45.9271 1382.26 44.7617C1379.47 45.2279 1377.25 45.4609 1375.62 45.4609C1373.99 44.9948 1373.17 43.5964 1373.17 41.2656C1373.17 40.5664 1373.41 39.7507 1373.87 38.8184C1372.47 37.4199 1371.78 28.6797 1371.78 12.5977C1371.78 8.63542 1373.99 6.6543 1378.42 6.6543H1390.3C1393.8 6.6543 1399.39 6.42122 1407.09 5.95508C1407.55 6.88737 1407.79 7.9362 1407.79 9.10156H1410.58V8.40234L1409.88 6.6543L1411.28 5.95508H1415.83C1419.79 5.95508 1424.57 6.18815 1430.16 6.6543C1431.79 5.72201 1433.31 5.25586 1434.7 5.25586H1442.05L1447.29 6.6543L1448.69 4.55664ZM1531.91 5.60547C1537.5 5.60547 1541.23 6.6543 1543.1 8.75195H1544.5C1544.5 6.6543 1548.81 5.60547 1557.43 5.60547C1559.3 6.07161 1560.23 6.53776 1560.23 7.00391L1566.52 5.60547C1574.91 5.60547 1579.11 10.6165 1579.11 20.6387C1580.04 27.8639 1581.79 37.3034 1584.35 48.957L1583.65 52.1035L1594.84 124.123L1606.03 197.891C1605.56 200.454 1605.33 201.969 1605.33 202.436C1607.89 213.623 1609.17 221.081 1609.17 224.811V225.51C1609.17 226.442 1608.71 226.908 1607.78 226.908C1610.81 234.833 1612.32 243.34 1612.32 252.43C1612.79 252.43 1613.49 255.693 1614.42 262.219L1613.72 265.365C1614.19 266.298 1614.42 267.23 1614.42 268.162C1613.49 270.027 1613.02 271.542 1613.02 272.707C1613.72 272.707 1614.42 273.523 1615.12 275.154V277.951C1614.65 279.583 1613.14 280.398 1610.57 280.398C1610.11 280.398 1609.87 280.165 1609.87 279.699C1608.47 280.165 1604.98 280.398 1599.38 280.398C1599.38 279.466 1598.92 279 1597.99 279C1597.99 280.398 1596.7 281.098 1594.14 281.098C1593.67 281.098 1592.98 280.865 1592.04 280.398C1588.55 280.865 1585.75 281.098 1583.65 281.098H1581.55C1575.49 281.098 1572.46 275.62 1572.46 264.666C1568.97 229.472 1566.75 211.875 1565.82 211.875H1556.03C1553.94 211.875 1551.14 211.642 1547.64 211.176C1546.71 211.642 1545.66 211.875 1544.5 211.875C1544.03 211.875 1543.33 211.642 1542.4 211.176C1538.9 211.642 1536.11 211.875 1534.01 211.875H1530.51C1529.81 211.875 1529.46 211.642 1529.46 211.176C1527.13 211.176 1525.15 220.732 1523.52 239.844L1520.72 246.486C1520.72 249.05 1521.19 250.332 1522.12 250.332C1521.19 259.888 1519.91 266.88 1518.28 271.309L1518.97 272.707C1518.04 277.368 1515.83 279.699 1512.33 279.699C1504.41 279.233 1499.63 279 1498 279C1497.3 279 1493.34 279.233 1486.11 279.699C1479.59 279.699 1476.32 277.951 1476.32 274.455L1478.42 264.666V263.967C1478.42 262.801 1478.19 261.753 1477.72 260.82C1478.89 259.422 1480.4 251.381 1482.27 236.697C1483.9 220.149 1485.41 210.943 1486.81 209.078L1487.51 207.68V205.232L1486.81 203.834C1491.94 166.775 1495.43 148.246 1497.3 148.246H1498V151.393H1501.14L1501.84 145.799H1498L1498.7 143.002C1498.23 141.37 1497.77 140.555 1497.3 140.555C1508.25 72.0312 1513.73 34.8561 1513.73 29.0293C1516.76 14.3457 1519.79 7.00391 1522.82 7.00391C1525.15 6.07161 1528.18 5.60547 1531.91 5.60547ZM1531.91 162.58C1532.14 169.106 1532.84 172.369 1534.01 172.369L1538.55 171.67C1544.38 172.602 1548.46 173.068 1550.79 173.068C1551.02 173.068 1551.95 172.835 1553.59 172.369C1555.45 172.835 1557.43 173.068 1559.53 173.068H1560.23C1560.69 173.068 1561.51 172.253 1562.68 170.621L1559.53 155.588C1559.53 155.122 1559.76 154.889 1560.23 154.889C1558.83 143.468 1557.66 135.777 1556.73 131.814C1557.2 130.882 1557.43 130.066 1557.43 129.367L1554.29 111.537C1554.29 111.071 1554.52 110.838 1554.98 110.838C1552.42 84.2676 1550.44 70.9824 1549.04 70.9824H1547.64C1546.01 70.9824 1544.5 78.9069 1543.1 94.7559C1540.07 112.936 1536.8 135.311 1533.31 161.881L1531.91 162.58ZM1629.81 6.30469C1630.75 6.30469 1631.21 6.6543 1631.21 7.35352L1636.46 6.30469H1652.19C1653.59 6.30469 1655.1 6.88737 1656.73 8.05273L1656.04 9.45117V10.8496H1658.48V9.45117L1657.78 8.05273C1659.42 6.88737 1660.58 6.30469 1661.28 6.30469C1662.91 6.30469 1664.43 8.40234 1665.82 12.5977C1665.82 13.763 1665.59 17.4922 1665.13 23.7852C1665.13 30.7773 1665.59 39.8672 1666.52 51.0547C1665.59 117.48 1664.66 150.693 1663.73 150.693C1663.73 151.859 1664.43 160.366 1665.82 176.215C1665.36 179.012 1665.13 181.109 1665.13 182.508C1666.06 186.004 1666.52 188.684 1666.52 190.549C1666.52 191.481 1666.06 192.763 1665.13 194.395C1665.59 199.988 1665.82 204.766 1665.82 208.729C1665.82 211.292 1665.59 213.856 1665.13 216.42C1665.59 218.984 1665.82 222.014 1665.82 225.51V227.607C1665.82 228.074 1666.06 228.307 1666.52 228.307C1666.06 231.803 1665.36 234.133 1664.43 235.299C1665.36 236.697 1665.82 238.445 1665.82 240.543C1668.16 240.543 1673.75 240.776 1682.61 241.242C1699.85 240.776 1710.92 240.543 1715.82 240.543C1721.88 240.543 1724.91 243.107 1724.91 248.234V261.869C1725.84 269.094 1726.31 273.057 1726.31 273.756C1726.31 278.883 1721.53 281.447 1711.97 281.447H1708.13C1707.66 281.447 1706.96 281.214 1706.03 280.748C1702.77 281.214 1691.93 281.913 1673.52 282.846C1671.65 282.38 1669.67 282.146 1667.57 282.146C1666.41 282.146 1665.36 282.38 1664.43 282.846C1656.73 282.146 1652.42 281.68 1651.49 281.447C1647.99 281.913 1645.2 282.146 1643.1 282.146H1628.77C1628.3 282.146 1628.07 282.38 1628.07 282.846C1625.74 281.913 1623.99 280.398 1622.82 278.301L1623.52 271.658C1623.52 269.094 1623.06 267.812 1622.12 267.812L1622.82 262.568V252.779C1623.76 251.381 1624.22 250.332 1624.22 249.633C1623.29 248.701 1622.59 243.456 1622.12 233.9L1623.52 159.783C1623.52 156.753 1623.29 152.674 1622.82 147.547C1623.29 135.194 1623.52 122.958 1623.52 110.838V87.4141C1623.52 77.625 1623.29 65.5052 1622.82 51.0547L1623.52 46.5098C1623.06 43.946 1622.82 40.6829 1622.82 36.7207C1622.82 33.4577 1623.64 29.612 1625.27 25.1836C1624.57 20.9883 1624.22 17.4922 1624.22 14.6953V12.5977C1624.69 8.40234 1626.55 6.30469 1629.81 6.30469ZM1632.61 8.75195C1632.84 9.68424 1633.43 10.1504 1634.36 10.1504V8.75195H1632.61Z" fill="#E69AA4"/>
</svg>
