<svg width="1690" height="554" viewBox="0 0 1690 554" fill="none" xmlns="http://www.w3.org/2000/svg">
<path d="M116.064 0.263672L126.406 1.64258H139.506C186.389 1.64258 220.172 23.4753 240.855 67.1406C244.533 76.793 248.439 91.9609 252.576 112.645L251.197 119.539C252.117 130.57 252.576 139.993 252.576 147.807C249.359 154.242 245.452 157.459 240.855 157.459C236.719 157.459 234.65 156.999 234.65 156.08L217.414 157.459H180.873C169.842 157.459 164.326 152.633 164.326 142.98L166.395 140.223V120.918C166.395 94.7188 155.133 81.6191 132.611 81.6191H127.785C102.505 81.6191 89.8652 93.7995 89.8652 118.16C89.8652 148.496 122.499 206.64 187.768 292.592C227.756 356.021 247.75 407.041 247.75 445.65V447.029C244.533 473.229 236.259 494.831 222.93 511.838C199.948 539.876 167.773 553.895 126.406 553.895C60.2188 553.895 19.7708 524.248 5.0625 464.955C3.22396 448.868 1.84505 439.445 0.925781 436.688C1.84505 428.414 3.68359 421.749 6.44141 416.693C3.68359 411.637 2.30469 407.73 2.30469 404.973V402.215C2.30469 394.401 8.73958 390.494 21.6094 390.494C22.9883 390.494 28.7337 390.954 38.8457 391.873C55.8522 390.954 66.6536 390.494 71.25 390.494C79.0638 390.494 84.3496 393.712 87.1074 400.146C87.1074 401.525 86.6478 403.134 85.7285 404.973C85.7285 440.824 90.5547 461.278 100.207 466.334C102.965 468.632 109.4 470.93 119.512 473.229H129.854C148.699 473.229 159.73 461.048 162.947 436.688C162.947 410.029 135.829 358.549 81.5918 282.25C81.5918 279.952 76.5358 273.517 66.4238 262.945C25.5163 201.354 5.0625 150.335 5.0625 109.887V107.818C5.0625 63.6934 31.0319 29.6803 82.9707 5.7793C89.4056 5.7793 100.437 3.94076 116.064 0.263672ZM456.682 7.84766L464.266 9.22656H508.391C516.205 10.1458 520.112 14.0527 520.112 20.9473C520.112 26.0033 519.652 28.5312 518.733 28.5312C519.652 38.1836 520.112 45.5378 520.112 50.5938V82.998C520.112 93.11 520.571 100.464 521.49 105.061C520.571 112.415 520.112 120.688 520.112 129.881V160.906C520.112 173.316 520.571 182.969 521.49 189.863C520.571 196.758 520.112 206.64 520.112 219.51V241.572C520.112 253.063 520.571 264.784 521.49 276.734L520.112 284.318C521.031 299.027 521.49 312.816 521.49 325.686V358.09C521.49 359.928 521.95 361.767 522.869 363.605C521.95 365.444 521.49 367.512 521.49 369.811V428.414C521.49 429.333 521.95 429.793 522.869 429.793C521.95 431.632 521.49 433.24 521.49 434.619C521.49 438.756 521.95 441.514 522.869 442.893C521.95 451.626 521.49 458.52 521.49 463.576C521.49 477.825 521.95 500.347 522.869 531.143C522.869 543.093 515.975 549.068 502.186 549.068H446.34C437.607 549.068 433.24 537.348 433.24 513.906C434.16 508.391 434.619 504.024 434.619 500.807V459.439C434.619 453.924 435.079 447.029 435.998 438.756C435.079 436.917 434.619 435.538 434.619 434.619C434.619 430.942 435.079 426.346 435.998 420.83C435.079 398.768 434.619 378.314 434.619 359.469V349.127L435.998 340.164C435.079 338.326 434.619 335.798 434.619 332.58L435.998 324.307C435.079 318.791 434.619 313.735 434.619 309.139V307.76L427.725 306.381H362.916C362.916 308.219 362.457 309.139 361.537 309.139L362.916 327.064V350.506C362.916 353.723 362.457 356.251 361.537 358.09L362.916 366.363V409.109C362.916 423.358 363.376 433.7 364.295 440.135C363.376 448.868 362.916 459.669 362.916 472.539V519.422C362.916 539.186 358.55 549.068 349.817 549.068H295.35C284.319 549.068 278.803 544.702 278.803 535.969C278.803 523.559 279.263 509.31 280.182 493.223C280.182 486.788 279.722 473.918 278.803 454.613C279.722 421.06 280.182 398.078 280.182 385.668C279.263 360.848 278.803 346.139 278.803 341.543C278.803 340.624 279.263 339.245 280.182 337.406C279.263 329.133 278.803 322.238 278.803 316.723V291.902C278.803 280.411 278.343 270.07 277.424 260.877L278.803 247.777C277.884 206.87 276.964 183.199 276.045 176.764C276.964 169.869 277.424 165.962 277.424 165.043C276.505 120.918 275.586 96.3275 274.666 91.2715C275.586 85.2962 276.045 78.6315 276.045 71.2773C276.045 62.5443 275.586 45.7676 274.666 20.9473C274.666 16.3509 278.114 12.444 285.008 9.22656C287.766 9.22656 291.213 9.6862 295.35 10.6055C312.356 9.6862 327.065 9.22656 339.475 9.22656H344.99C352.345 9.22656 357.86 12.2142 361.537 18.1895C361.537 18.6491 360.848 25.084 359.469 37.4941C360.848 79.321 361.537 102.762 361.537 107.818L359.469 110.576L361.537 119.539V138.844C361.537 141.142 361.997 142.98 362.916 144.359C362.916 145.279 362.457 145.738 361.537 145.738L362.916 163.664V188.484C362.916 191.702 362.457 194.23 361.537 196.068L362.916 205.031V225.715C376.246 226.634 385.898 227.094 391.873 227.094H417.383L434.619 225.715V200.205C434.619 184.118 435.079 171.478 435.998 162.285C434.16 137.005 433.24 96.3275 433.24 40.252V38.873C433.24 34.7363 432.781 29.2207 431.862 22.3262C431.862 12.6738 440.135 7.84766 456.682 7.84766ZM590.463 8.53711C593.681 10.3757 596.209 11.2949 598.047 11.2949L621.489 9.91602L624.247 11.2949C626.085 10.3757 627.924 9.91602 629.762 9.91602C635.737 9.91602 639.185 15.2018 640.104 25.7734C639.185 28.5312 638.265 29.9102 637.346 29.9102L638.725 45.0781C638.725 74.0352 638.265 112.874 637.346 161.596C638.265 178.602 638.725 188.944 638.725 192.621C637.806 204.112 637.346 212.385 637.346 217.441C638.265 243.641 638.725 259.728 638.725 265.703C638.725 271.219 638.265 282.939 637.346 300.865C638.265 317.412 638.725 333.499 638.725 349.127C638.725 359.699 638.265 369.351 637.346 378.084C638.265 389.115 638.725 403.134 638.725 420.141C638.725 438.526 638.265 453.234 637.346 464.266C638.265 476.216 638.725 492.763 638.725 513.906V528.385C638.725 542.174 632.98 549.068 621.489 549.068H568.401C557.829 549.068 552.543 543.783 552.543 533.211V525.627C552.543 515.975 553.003 511.148 553.922 511.148C553.003 502.875 552.543 495.98 552.543 490.465V486.328C552.543 455.073 553.003 428.184 553.922 405.662C553.003 390.954 552.543 377.395 552.543 364.984C552.543 359.009 553.003 347.288 553.922 329.822C553.003 316.952 552.543 297.418 552.543 271.219C552.543 268.001 552.084 265.703 551.165 264.324L552.543 255.361V216.062C552.543 212.385 552.084 208.019 551.165 202.963C552.084 201.124 552.543 198.137 552.543 194C552.543 189.404 552.084 186.416 551.165 185.037C552.084 176.764 552.543 169.869 552.543 164.354V107.818C552.543 103.682 552.084 99.7747 551.165 96.0977C552.084 92.4206 552.543 88.5137 552.543 84.377V59.5566C552.543 57.7181 556.45 56.1094 564.264 54.7305L565.643 47.8359L562.885 46.457L553.922 47.8359L552.543 45.0781V23.0156C553.922 14.2826 558.289 9.91602 565.643 9.91602H582.19L590.463 8.53711ZM726.313 9.91602L749.065 11.2949C753.662 11.2949 768.83 10.8353 794.569 9.91602C837.775 9.91602 869.949 26.0033 891.093 58.1777C903.043 80.2402 909.018 104.601 909.018 131.26V171.938C904.882 200.895 898.447 222.268 889.714 236.057C883.738 243.87 875.925 252.604 866.272 262.256C889.714 281.561 901.434 295.809 901.434 305.002C911.087 322.468 915.913 361.997 915.913 423.588C914.074 439.215 911.087 448.408 906.95 451.166L911.776 453.924C906.72 479.663 897.987 499.658 885.577 513.906C860.757 537.348 833.408 549.068 803.532 549.068C787.904 548.149 778.712 547.689 775.954 547.689C741.941 548.609 720.338 549.068 711.145 549.068L708.387 550.447C706.549 549.528 704.71 549.068 702.872 549.068H683.567C675.753 549.068 671.846 544.242 671.846 534.59V502.186C671.846 501.266 671.387 500.807 670.468 500.807C671.387 498.968 671.846 497.589 671.846 496.67C671.846 492.533 671.387 490.465 670.468 490.465L671.846 473.229V429.104C671.846 418.532 671.387 411.178 670.468 407.041C671.387 399.687 671.846 391.413 671.846 382.221V347.059C671.846 329.592 672.306 315.574 673.225 305.002C672.306 297.188 671.846 285.467 671.846 269.84C671.846 251.914 672.306 232.839 673.225 212.615C673.225 209.857 672.766 200.205 671.846 183.658L674.604 33.3574L673.225 24.3945C673.225 15.6615 680.12 11.2949 693.909 11.2949C706.779 11.2949 717.58 10.8353 726.313 9.91602ZM758.028 92.6504V136.775C758.028 149.186 758.488 158.838 759.407 165.732C758.488 172.627 758.028 182.509 758.028 195.379V229.162H785.606C809.967 225.485 822.147 211.696 822.147 187.795V182.279C822.147 167.571 822.837 150.564 824.216 131.26C820.079 103.682 809.277 89.8926 791.811 89.8926H760.786C758.947 90.3522 758.028 91.2715 758.028 92.6504ZM756.649 310.518V341.543C756.649 347.978 756.19 353.723 755.27 358.779L758.028 417.383C757.109 424.277 756.649 433.93 756.649 446.34V460.129L758.028 469.781C798.936 469.781 819.389 465.415 819.389 456.682C826.284 456.682 830.191 430.023 831.11 376.705C831.11 333.499 822.837 311.896 806.29 311.896C806.29 310.977 800.085 309.598 787.675 307.76H759.407C757.568 308.219 756.649 309.139 756.649 310.518ZM1000.74 8.53711C1010.4 8.53711 1015.22 15.4316 1015.22 29.2207C1015.22 39.7923 1015.68 45.0781 1016.6 45.0781L1015.22 55.4199C1015.22 72.8861 1015.68 92.8802 1016.6 115.402C1016.6 119.079 1016.14 131.26 1015.22 151.943C1016.14 173.087 1016.6 187.795 1016.6 196.068C1016.6 202.963 1016.14 216.062 1015.22 235.367C1016.14 253.293 1016.6 269.38 1016.6 283.629C1016.6 291.443 1016.14 300.635 1015.22 311.207C1016.14 322.238 1016.6 336.487 1016.6 353.953C1016.6 373.258 1015.68 389.345 1013.84 402.215C1014.76 407.271 1015.22 412.097 1015.22 416.693V429.793L1013.84 438.756C1019.82 461.738 1030.39 473.229 1045.56 473.229H1060.73C1081.87 473.229 1092.44 458.29 1092.44 428.414C1092.44 405.892 1091.98 388.196 1091.06 375.326C1091.98 360.618 1092.44 350.506 1092.44 344.99C1091.52 315.574 1091.06 298.567 1091.06 293.971C1091.06 288.455 1091.52 279.033 1092.44 265.703C1091.52 247.318 1091.06 234.678 1091.06 227.783C1091.06 218.131 1091.52 198.137 1092.44 167.801C1092.44 162.285 1091.98 152.173 1091.06 137.465C1091.98 111.725 1092.44 83.4577 1092.44 52.6621V33.3574C1092.44 32.4382 1092.9 31.9785 1093.82 31.9785L1092.44 29.2207V21.6367C1094.28 12.9036 1098.65 8.53711 1105.54 8.53711L1113.12 9.91602H1162.76C1172.42 9.91602 1177.24 13.8229 1177.24 21.6367V47.8359C1177.24 49.2148 1176.78 49.9043 1175.86 49.9043L1177.24 52.6621V128.502C1177.24 130.8 1177.7 132.868 1178.62 134.707L1177.24 137.465C1177.24 148.036 1177.7 164.124 1178.62 185.727C1177.7 224.336 1177.24 248.237 1177.24 257.43C1177.24 265.703 1177.7 275.355 1178.62 286.387C1177.7 302.934 1177.24 321.549 1177.24 342.232V372.568C1177.24 376.705 1177.7 380.612 1178.62 384.289C1177.7 387.966 1177.24 391.873 1177.24 396.01V433.93C1177.24 487.247 1152.42 525.397 1102.78 548.379C1086.69 552.056 1067.62 553.895 1045.56 553.895H1044.18C990.401 553.895 954.32 525.627 935.935 469.092C934.556 453.464 933.177 445.65 931.798 445.65C931.798 444.731 932.257 444.271 933.177 444.271C932.257 419.451 931.798 401.525 931.798 390.494V371.189L930.419 362.227C931.798 347.518 932.717 338.326 933.177 334.648C931.338 321.319 930.419 309.598 930.419 299.486C930.419 287.995 930.879 276.275 931.798 264.324C930.879 245.479 930.419 228.932 930.419 214.684C930.419 203.652 930.879 193.54 931.798 184.348C930.879 173.316 930.419 159.068 930.419 141.602V132.639C930.419 118.85 930.879 108.738 931.798 102.303C930.879 94.0293 930.419 83.2279 930.419 69.8984V40.9414C930.419 20.2578 932.947 9.91602 938.003 9.91602H942.14C956.388 9.91602 975.923 9.45638 1000.74 8.53711ZM1206.92 7.84766H1237.25C1260.69 7.84766 1272.42 12.6738 1272.42 22.3262C1279.31 49.9043 1289.42 105.52 1302.75 189.174C1304.13 189.174 1307.12 203.652 1311.71 232.609L1314.47 233.988H1320.68L1358.6 35.4258C1360.44 17.9596 1365.72 9.22656 1374.45 9.22656C1379.51 8.30729 1384.57 7.84766 1389.62 7.84766C1396.98 7.84766 1414.9 8.30729 1443.4 9.22656C1444.78 9.22656 1446.62 11.0651 1448.92 14.7422C1408.01 168.26 1381.81 272.138 1370.32 326.375C1366.64 334.189 1362.73 351.195 1358.6 377.395L1359.98 400.836L1357.22 406.352C1358.14 434.849 1358.6 453.005 1358.6 460.818C1358.6 471.85 1358.14 485.868 1357.22 502.875C1358.14 511.608 1358.6 522.869 1358.6 536.658C1358.6 543.553 1343.89 547 1314.47 547C1307.58 546.081 1297.93 545.621 1285.51 545.621C1277.7 545.621 1273.79 540.795 1273.79 531.143V482.881C1273.79 475.067 1274.25 464.725 1275.17 451.855C1274.25 450.017 1273.79 448.638 1273.79 447.719C1273.79 446.799 1274.25 446.34 1275.17 446.34L1272.42 384.979C1273.33 378.084 1273.79 372.568 1273.79 368.432C1233.81 208.479 1205.08 90.582 1187.61 14.7422C1187.61 10.1458 1194.05 7.84766 1206.92 7.84766ZM1510.99 9.22656C1523.4 9.22656 1538.57 9.6862 1556.5 10.6055C1562.93 9.6862 1569.37 9.22656 1575.8 9.22656L1582.7 10.6055C1586.37 9.6862 1590.28 9.22656 1594.42 9.22656C1606.37 9.22656 1612.34 17.9596 1612.34 35.4258C1616.02 54.7305 1630.96 151.714 1657.16 326.375C1658.54 326.375 1659.69 328.673 1660.6 333.27L1659.23 336.717C1661.98 353.264 1663.36 363.376 1663.36 367.053L1661.98 374.637C1664.28 374.637 1667.73 389.115 1672.33 418.072C1670.95 420.37 1670.26 421.979 1670.26 422.898C1679.45 468.402 1685.88 507.242 1689.56 539.416C1689.1 544.472 1686.11 547 1680.6 547H1616.48C1606.83 547 1602 534.36 1602 509.08C1594.19 444.731 1588.9 412.557 1586.14 412.557H1584.08C1574.42 412.557 1552.59 413.016 1518.58 413.936L1510.99 412.557C1506.4 426.805 1502.03 458.52 1497.89 507.701C1496.06 533.9 1490.31 547 1480.66 547H1449.63C1422.51 547 1408.95 544.472 1408.95 539.416V536.658C1419.53 458.52 1442.51 311.437 1477.9 95.4082C1485.71 44.8483 1491.46 16.5807 1495.14 10.6055C1502.03 9.6862 1507.32 9.22656 1510.99 9.22656ZM1519.96 331.891L1522.71 333.27H1530.3C1533.06 333.27 1534.44 332.81 1534.44 331.891L1542.02 333.27H1577.18C1577.18 317.182 1573.27 283.169 1565.46 231.23C1566.38 229.392 1566.84 228.013 1566.84 227.094L1556.5 152.633L1557.88 149.186C1556.96 140.452 1555.12 136.086 1552.36 136.086H1549.6C1544.09 136.086 1538.11 174.236 1531.68 250.535C1529.84 250.535 1526.39 276.275 1521.34 327.754C1520.42 327.754 1519.96 329.133 1519.96 331.891Z" fill="#251607"/>
</svg>
