<svg width="170" height="978" viewBox="0 0 170 978" fill="none" xmlns="http://www.w3.org/2000/svg">
<path d="M128.345 0.0683594C130.881 0.0683594 133.416 0.735677 135.952 2.07031C139.289 3.53841 141.624 4.40592 142.959 4.67285C146.963 5.74056 149.699 6.47461 151.167 6.875C154.771 7.94271 157.24 9.21061 158.574 10.6787C161.243 11.346 163.646 13.4814 165.781 17.085L164.58 19.6875C160.176 20.3548 157.039 21.9564 155.171 24.4922C153.97 25.9603 151.834 39.6403 148.765 65.5322C145.428 94.8942 143.293 111.844 142.358 116.382C141.691 119.718 141.558 122.254 141.958 123.989C141.157 124.657 140.223 125.858 139.155 127.593C137.02 131.73 134.751 134.399 132.349 135.601C128.745 136.802 125.208 138.003 121.738 139.204L114.131 130.195C111.061 129.928 108.125 129.795 105.322 129.795C99.3164 129.795 90.9082 130.596 80.0977 132.197C69.4206 133.799 61.1458 135.4 55.2734 137.002C48.6003 139.004 43.4619 141.873 39.8584 145.61C37.0557 144.543 33.8525 141.273 30.249 135.801C28.7809 134.199 27.2461 132.531 25.6445 130.796C24.1764 128.927 23.4424 126.925 23.4424 124.79L27.2461 123.188L38.457 126.392C50.0684 124.39 67.5521 121.453 90.9082 117.583C100.384 116.248 105.389 115.581 105.923 115.581C105.923 115.581 109.259 115.848 115.933 116.382C118.201 107.44 119.736 96.3623 120.537 83.1494C121.071 71.9385 121.605 60.7275 122.139 49.5166C122.139 49.5166 123.006 40.8415 124.741 23.4912L122.939 18.0859C118.402 18.0859 112.93 18.7533 106.523 20.0879C101.185 21.2891 95.8464 22.4902 90.5078 23.6914C80.3646 25.293 70.1546 26.8278 59.8779 28.2959C49.3343 30.0309 39.2578 32.9004 29.6484 36.9043C20.8398 31.4323 14.9007 24.4255 11.8311 15.8838C12.2314 15.4834 13.3659 15.083 15.2344 14.6826C16.9694 14.4157 18.1706 14.4157 18.8379 14.6826L28.6475 18.0859C31.984 18.0859 36.722 17.819 42.8613 17.2852L106.724 6.875C107.658 6.74154 109.193 6.34115 111.328 5.67383C114.131 4.47266 116.934 3.27148 119.736 2.07031C122.673 0.735677 125.542 0.0683594 128.345 0.0683594ZM126.343 198.462C130.881 198.862 136.419 200.664 142.959 203.867C152.435 208.138 157.84 210.474 159.175 210.874C159.308 211.274 161.043 212.809 164.38 215.479C166.515 217.08 167.583 219.215 167.583 221.885C166.916 223.219 166.315 224.754 165.781 226.489L160.776 228.291L150.967 225.688C148.564 226.489 146.296 228.825 144.16 232.695C141.758 236.966 139.756 239.635 138.154 240.703C135.885 244.307 131.882 248.577 126.143 253.516C120.537 258.454 115.599 262.057 111.328 264.326C107.591 265.928 102.453 268.73 95.9131 272.734C93.7777 274.736 92.71 278.14 92.71 282.944C92.71 284.813 92.443 287.082 91.9092 289.751C91.2419 293.755 90.8415 296.09 90.708 296.758C90.708 297.826 90.6413 299.427 90.5078 301.562C89.8405 303.564 88.973 306.567 87.9053 310.571C83.1006 330.591 75.9603 345.272 66.4844 354.614C62.6139 358.485 56.7415 361.688 48.8672 364.224C56.7415 354.748 62.5472 343.27 66.2842 329.79C68.9535 320.181 71.0221 307.235 72.4902 290.952C72.6237 290.018 73.1576 285.947 74.0918 278.74C74.7591 273.402 75.0928 269.398 75.0928 266.729C75.0928 263.125 72.9574 260.256 68.6865 258.12C63.4814 255.184 60.4118 253.115 59.4775 251.914L73.291 248.11C77.028 248.911 80.6982 249.645 84.3018 250.312C89.1064 251.514 92.443 253.049 94.3115 254.917C94.3115 255.05 94.3115 255.384 94.3115 255.918C94.3115 256.585 93.8444 257.786 92.9102 259.521C92.1094 261.257 91.709 262.391 91.709 262.925C91.709 262.925 91.7757 263.258 91.9092 263.926C105.789 248.311 115.599 232.161 121.338 215.479L117.935 214.678L80.2979 222.686C78.4294 223.353 75.6266 224.22 71.8896 225.288C63.7484 227.29 54.0055 230.026 42.6611 233.496C39.8584 233.896 36.5218 234.697 32.6514 235.898C30.9163 237.233 30.0488 239.102 30.0488 241.504C29.248 242.305 27.9801 243.239 26.2451 244.307C23.1755 243.506 21.04 242.171 19.8389 240.303C18.7712 238.301 15.9684 231.294 11.4307 219.282L23.042 223.286C40.2588 219.282 57.5423 215.345 74.8926 211.475C95.446 206.803 112.596 202.466 126.343 198.462ZM99.5166 394.253C100.184 394.52 103.721 396.455 110.127 400.059C115.999 403.262 119.269 405.13 119.937 405.664C123.54 408.467 125.342 411.603 125.342 415.073L123.54 419.277C116.333 420.612 111.995 421.079 110.527 420.679C105.189 422.147 97.3812 426.351 87.1045 433.291C88.7061 435.96 93.3105 437.962 100.918 439.297C107.992 440.498 112.129 443.368 113.33 447.905C112.93 449.373 111.729 451.309 109.727 453.711C107.858 456.113 106.924 458.049 106.924 459.517C106.924 460.317 107.057 461.051 107.324 461.719L109.727 462.52C111.462 461.986 114.665 461.652 119.336 461.519C124.007 461.385 127.744 460.651 130.547 459.316C137.754 460.651 144.894 461.919 151.968 463.12C160.109 465.122 165.981 468.726 169.585 473.931C169.585 477.534 168.317 480.404 165.781 482.539C163.245 484.541 160.109 485.542 156.372 485.542L151.968 484.141C148.765 483.073 144.827 482.072 140.156 481.138C131.481 479.136 121.338 478.135 109.727 478.135C109.727 478.135 108.325 478.669 105.522 479.736C105.522 481.605 104.922 484.074 103.721 487.144C102.386 490.881 101.652 493.35 101.519 494.551C101.519 496.82 101.252 499.956 100.718 503.96C95.5127 528.651 89.3066 547.069 82.0996 559.214C80.2311 562.417 76.3607 566.154 70.4883 570.425L63.2812 572.427C69.2871 559.481 73.7581 546.268 76.6943 532.788C82.0329 508.898 84.7021 493.149 84.7021 485.542C84.7021 485.542 84.502 484.408 84.1016 482.139C78.763 482.939 70.8219 484.274 60.2783 486.143C56.9417 487.077 51.403 488.812 43.6621 491.348C35.3874 494.017 30.1823 496.086 28.0469 497.554C24.4434 499.689 22.4414 502.625 22.041 506.362L15.0342 506.963C10.2295 500.156 7.69368 490.28 7.42676 477.334C7.96061 476.934 8.42773 476.733 8.82812 476.733C9.49544 476.733 10.5632 477.534 12.0312 479.136C13.8997 481.138 14.9007 482.139 15.0342 482.139C15.3011 482.005 26.9792 479.136 50.0684 473.53C64.2155 469.927 75.9603 467.524 85.3027 466.323L84.7021 453.511C82.4333 452.176 80.4313 450.575 78.6963 448.706C77.0947 446.838 75.4932 444.969 73.8916 443.101H66.2842C66.0173 443.234 63.6149 443.768 59.0771 444.702C53.0713 445.903 48.2666 446.504 44.6631 446.504C44.6631 446.504 41.7269 445.97 35.8545 444.902C44.7965 441.032 54.139 435.293 63.8818 427.686C68.9535 423.548 77.0947 416.141 88.3057 405.464C88.0387 401.86 87.9053 400.059 87.9053 400.059C87.9053 400.059 88.0387 399.124 88.3057 397.256L91.5088 398.657L99.5166 394.253ZM124.941 666.919H139.756L154.17 671.123L159.375 675.728C159.775 678.664 160.91 681.066 162.778 682.935C161.978 684.403 160.776 685.671 159.175 686.738C157.573 687.806 155.638 688.006 153.369 687.339L149.565 688.54C147.83 688.54 145.828 688.407 143.56 688.14C141.424 687.739 138.888 687.272 135.952 686.738C133.016 686.204 130.213 685.804 127.544 685.537C125.008 685.27 122.539 685.137 120.137 685.137H113.13L104.521 684.736C103.32 684.736 102.253 684.736 101.318 684.736C100.518 684.736 99.7168 684.803 98.916 684.937C98.1152 685.07 97.0475 685.203 95.7129 685.337C94.5117 685.47 93.5107 685.604 92.71 685.737C92.0426 685.871 91.2419 685.938 90.3076 685.938C89.5068 685.938 88.5726 686.004 87.5049 686.138C86.4372 686.138 85.236 686.138 83.9014 686.138C82.7002 686.138 81.6325 686.271 80.6982 686.538C79.8975 686.672 79.0967 686.805 78.2959 686.938C77.4951 686.938 76.5609 687.072 75.4932 687.339C74.4255 687.472 73.5579 687.606 72.8906 687.739C72.3568 687.739 71.556 687.873 70.4883 688.14C69.4206 688.273 68.4196 688.34 67.4854 688.34C66.6846 688.34 65.6169 688.34 64.2822 688.34C63.0811 688.34 62.0133 688.34 61.0791 688.34C60.2783 688.34 59.4108 688.407 58.4766 688.54C57.5423 688.674 56.6081 688.807 55.6738 688.94C54.7396 688.94 53.8053 689.074 52.8711 689.341C52.0703 689.608 51.1361 689.875 50.0684 690.142C49.1341 690.275 48.1331 690.475 47.0654 690.742C45.9977 691.009 44.9967 691.209 44.0625 691.343C43.1283 691.343 42.1273 691.543 41.0596 691.943C40.1253 692.21 39.2578 692.477 38.457 692.744C37.6562 693.011 36.9222 693.345 36.2549 693.745C35.721 694.012 34.9202 694.546 33.8525 695.347C32.9183 696.147 32.1175 696.748 31.4502 697.148C30.7829 697.549 29.9821 697.949 29.0479 698.35C28.2471 698.75 27.3128 699.15 26.2451 699.551L21.6406 697.949C20.4395 697.282 19.3717 696.615 18.4375 695.947C17.5033 695.28 16.4355 694.613 15.2344 693.945C14.0332 693.278 12.8988 692.611 11.8311 691.943C10.8968 691.143 10.096 690.475 9.42871 689.941C8.89486 689.274 8.361 688.674 7.82715 688.14C7.29329 687.606 6.82617 687.139 6.42578 686.738C6.15885 686.204 5.8252 685.737 5.4248 685.337C5.02441 684.937 4.55729 684.536 4.02344 684.136C3.48958 683.602 2.95573 683.135 2.42188 682.734C1.88802 682.334 1.4209 682 1.02051 681.733C0.753581 681.333 0.553385 680.999 0.419922 680.732C0.286458 680.465 0.219727 680.132 0.219727 679.731L11.2305 680.933C13.8997 680.132 16.7025 679.531 19.6387 679.131C22.5749 678.597 25.5778 678.13 28.6475 677.729C31.8506 677.196 35.5876 676.662 39.8584 676.128C44.1292 675.461 47.7327 674.927 50.6689 674.526C53.7386 673.993 56.8083 673.525 59.8779 673.125C63.0811 672.591 66.1507 672.124 69.0869 671.724C72.1566 671.323 75.1595 670.99 78.0957 670.723C81.0319 670.322 85.1693 669.788 90.5078 669.121C95.9798 668.454 101.919 667.92 108.325 667.52C114.731 667.119 120.27 666.919 124.941 666.919ZM81.2988 808.657C81.8327 808.657 86.1035 809.992 94.1113 812.661C102.119 815.33 106.39 816.732 106.924 816.865C109.993 818.467 112.129 820.669 113.33 823.472C112.796 825.874 110.661 829.144 106.924 833.281C103.053 837.952 100.651 841.689 99.7168 844.492C98.1152 849.297 95.3125 856.237 91.3086 865.312C89.5736 870.117 86.971 876.991 83.501 885.933C81.3656 890.203 78.3626 896.676 74.4922 905.352C70.0879 916.162 66.5511 926.172 63.8818 935.381C70.9554 934.58 81.2321 932.111 94.7119 927.974C108.325 923.836 118.669 921.367 125.742 920.566C124.274 915.495 121.672 910.023 117.935 904.15C114.331 899.212 110.794 894.341 107.324 889.536C113.997 889.536 121.805 892.472 130.747 898.345C147.563 909.289 158.574 922.502 163.779 937.983C163.512 940.786 163.379 942.188 163.379 942.188C163.379 942.188 163.846 944.523 164.78 949.194C163.846 949.995 162.445 953.866 160.576 960.806C159.108 966.411 156.105 969.347 151.567 969.614C146.763 966.678 142.559 962.007 138.955 955.601C136.286 949.728 133.55 943.856 130.747 937.983C127.544 938.25 121.271 940.119 111.929 943.589C107.524 944.523 101.252 945.858 93.1104 947.593C89.1064 948.927 83.0339 950.996 74.8926 953.799C68.8867 955.534 62.8809 957.202 56.875 958.804C50.0684 960.939 44.3294 963.275 39.6582 965.811C36.722 967.145 33.6523 968.547 30.4492 970.015C27.2461 971.616 25.1774 974.019 24.2432 977.222L20.2393 976.221C18.6377 974.619 16.7025 972.15 14.4336 968.813C14.5671 967.612 14.5671 966.077 14.4336 964.209C13.4993 962.34 12.4316 959.404 11.2305 955.4C11.097 954.199 10.8301 952.731 10.4297 950.996L14.2334 940.986L19.4385 943.789L22.4414 947.593C23.5091 947.726 24.5768 947.793 25.6445 947.793C33.3854 947.793 40.3923 942.988 46.665 933.379C51.3363 926.038 55.6071 915.762 59.4775 902.549C62.0133 893.473 64.4824 884.331 66.8848 875.122C70.7552 864.312 75.9603 847.829 82.5 825.674C81.9661 825.007 79.4971 823.605 75.0928 821.47C72.0231 819.868 70.4883 817.733 70.4883 815.063L81.2988 808.657Z" fill="#251607"/>
</svg>
